<mxfile host="app.diagrams.net" modified="2023-10-26T14:10:42.435Z" agent="Mozilla/5.0 (Windows NT 10.0; Win64; x64) AppleWebKit/537.36 (KHTML, like Gecko) Chrome/118.0.0.0 Safari/537.36 Edg/118.0.2088.61" etag="k9KDOFxdGm1eJy5O2BWQ" version="22.0.8" type="github">
  <diagram name="Page-1" id="e7e014a7-5840-1c2e-5031-d8a46d1fe8dd">
    <mxGraphModel dx="2593" dy="1528" grid="1" gridSize="10" guides="1" tooltips="1" connect="1" arrows="1" fold="1" page="1" pageScale="1" pageWidth="1169" pageHeight="826" background="none" math="0" shadow="0">
      <root>
        <mxCell id="0" />
        <mxCell id="1" parent="0" />
        <mxCell id="2" value="Thread 1" style="swimlane;whiteSpace=wrap" parent="1" vertex="1">
          <mxGeometry x="164.5" y="128" width="280" height="570" as="geometry" />
        </mxCell>
        <mxCell id="5" value="" style="ellipse;shape=startState;fillColor=#000000;strokeColor=#ff0000;" parent="2" vertex="1">
          <mxGeometry x="100" y="40" width="30" height="30" as="geometry" />
        </mxCell>
        <mxCell id="6" value="" style="edgeStyle=elbowEdgeStyle;elbow=horizontal;verticalAlign=bottom;endArrow=open;endSize=8;strokeColor=#FF0000;endFill=1;rounded=0" parent="2" source="5" target="7" edge="1">
          <mxGeometry x="100" y="40" as="geometry">
            <mxPoint x="115" y="110" as="targetPoint" />
          </mxGeometry>
        </mxCell>
        <mxCell id="7" value="idle" style="" parent="2" vertex="1">
          <mxGeometry x="60" y="110" width="110" height="50" as="geometry" />
        </mxCell>
        <mxCell id="8" value="user action" style="" parent="2" vertex="1">
          <mxGeometry x="60" y="220" width="110" height="50" as="geometry" />
        </mxCell>
        <mxCell id="9" value="" style="endArrow=open;strokeColor=#FF0000;endFill=1;rounded=0" parent="2" source="7" target="8" edge="1">
          <mxGeometry relative="1" as="geometry" />
        </mxCell>
        <mxCell id="10" value="post command" style="" parent="2" vertex="1">
          <mxGeometry x="60" y="325" width="110" height="50" as="geometry" />
        </mxCell>
        <mxCell id="11" value="" style="endArrow=open;strokeColor=#FF0000;endFill=1;rounded=0" parent="2" source="8" target="10" edge="1">
          <mxGeometry relative="1" as="geometry" />
        </mxCell>
        <mxCell id="12" value="" style="edgeStyle=elbowEdgeStyle;elbow=horizontal;strokeColor=#FF0000;endArrow=open;endFill=1;rounded=0" parent="2" source="10" target="7" edge="1">
          <mxGeometry width="100" height="100" relative="1" as="geometry">
            <mxPoint x="160" y="290" as="sourcePoint" />
            <mxPoint x="260" y="190" as="targetPoint" />
            <Array as="points">
              <mxPoint x="30" y="250" />
            </Array>
          </mxGeometry>
        </mxCell>
        <mxCell id="3" value="Thread 2" style="swimlane;whiteSpace=wrap" parent="1" vertex="1">
          <mxGeometry x="444.5" y="128" width="280" height="570" as="geometry" />
        </mxCell>
        <mxCell id="13" value="" style="ellipse;shape=startState;fillColor=#000000;strokeColor=#ff0000;" parent="3" vertex="1">
          <mxGeometry x="60" y="40" width="30" height="30" as="geometry" />
        </mxCell>
        <mxCell id="14" value="" style="edgeStyle=elbowEdgeStyle;elbow=horizontal;verticalAlign=bottom;endArrow=open;endSize=8;strokeColor=#FF0000;endFill=1;rounded=0" parent="3" source="13" target="15" edge="1">
          <mxGeometry x="40" y="20" as="geometry">
            <mxPoint x="55" y="90" as="targetPoint" />
          </mxGeometry>
        </mxCell>
        <mxCell id="15" value="idle" style="" parent="3" vertex="1">
          <mxGeometry x="20" y="110" width="110" height="50" as="geometry" />
        </mxCell>
        <mxCell id="16" value="check for &#xa;new commands" style="" parent="3" vertex="1">
          <mxGeometry x="20" y="220" width="110" height="50" as="geometry" />
        </mxCell>
        <mxCell id="17" value="" style="endArrow=open;strokeColor=#FF0000;endFill=1;rounded=0" parent="3" source="15" target="16" edge="1">
          <mxGeometry relative="1" as="geometry" />
        </mxCell>
        <mxCell id="18" value="command queue" style="" parent="3" vertex="1">
          <mxGeometry x="20" y="325" width="110" height="50" as="geometry" />
        </mxCell>
        <mxCell id="19" value="" style="endArrow=open;strokeColor=#FF0000;endFill=1;rounded=0" parent="3" source="16" target="18" edge="1">
          <mxGeometry relative="1" as="geometry" />
        </mxCell>
        <mxCell id="21" value="queue empty" style="rhombus;fillColor=#ffffc0;strokeColor=#ff0000;" parent="3" vertex="1">
          <mxGeometry x="150" y="225" width="80" height="40" as="geometry" />
        </mxCell>
        <mxCell id="22" value="yes" style="edgeStyle=elbowEdgeStyle;elbow=horizontal;align=left;verticalAlign=bottom;endArrow=open;endSize=8;strokeColor=#FF0000;exitX=0.5;exitY=0;endFill=1;rounded=0;entryX=0.75;entryY=0.5;entryPerimeter=0" parent="3" source="21" target="25" edge="1">
          <mxGeometry x="-1" relative="1" as="geometry">
            <mxPoint x="160" y="150" as="targetPoint" />
            <Array as="points">
              <mxPoint x="190" y="180" />
            </Array>
          </mxGeometry>
        </mxCell>
        <mxCell id="23" value="no" style="edgeStyle=elbowEdgeStyle;elbow=horizontal;align=left;verticalAlign=top;endArrow=open;endSize=8;strokeColor=#FF0000;endFill=1;rounded=0" parent="3" source="21" target="30" edge="1">
          <mxGeometry x="-1" relative="1" as="geometry">
            <mxPoint x="190" y="305" as="targetPoint" />
          </mxGeometry>
        </mxCell>
        <mxCell id="24" value="" style="endArrow=open;strokeColor=#FF0000;endFill=1;rounded=0" parent="3" source="16" target="21" edge="1">
          <mxGeometry relative="1" as="geometry" />
        </mxCell>
        <mxCell id="25" value="" style="shape=line;strokeWidth=6;strokeColor=#ff0000;rotation=90" parent="3" vertex="1">
          <mxGeometry x="130" y="127.5" width="50" height="15" as="geometry" />
        </mxCell>
        <mxCell id="26" value="" style="edgeStyle=elbowEdgeStyle;elbow=horizontal;verticalAlign=bottom;endArrow=open;endSize=8;strokeColor=#FF0000;endFill=1;rounded=0" parent="3" source="25" target="15" edge="1">
          <mxGeometry x="130" y="90" as="geometry">
            <mxPoint x="230" y="140" as="targetPoint" />
          </mxGeometry>
        </mxCell>
        <mxCell id="30" value="dispatch&#xa;command&#xa;worker thread" style="" parent="3" vertex="1">
          <mxGeometry x="140" y="325" width="110" height="50" as="geometry" />
        </mxCell>
        <mxCell id="31" value="critical&#xa;section" style="shape=note;whiteSpace=wrap;size=17" parent="3" vertex="1">
          <mxGeometry x="105" y="490" width="100" height="50" as="geometry" />
        </mxCell>
        <mxCell id="32" value="" style="endArrow=none;strokeColor=#FF0000;endFill=0;rounded=0;dashed=1" parent="3" source="18" target="31" edge="1">
          <mxGeometry relative="1" as="geometry" />
        </mxCell>
        <mxCell id="34" value="" style="whiteSpace=wrap;strokeColor=#FF0000;fillColor=#FF0000" parent="3" vertex="1">
          <mxGeometry x="245" y="395" width="5" height="45" as="geometry" />
        </mxCell>
        <mxCell id="41" value="" style="edgeStyle=elbowEdgeStyle;elbow=horizontal;entryX=0;entryY=0.5;strokeColor=#FF0000;endArrow=open;endFill=1;rounded=0" parent="3" source="30" target="34" edge="1">
          <mxGeometry width="100" height="100" relative="1" as="geometry">
            <mxPoint x="60" y="480" as="sourcePoint" />
            <mxPoint x="160" y="380" as="targetPoint" />
            <Array as="points">
              <mxPoint x="195" y="400" />
            </Array>
          </mxGeometry>
        </mxCell>
        <mxCell id="4" value="Thread 3" style="swimlane;whiteSpace=wrap" parent="1" vertex="1">
          <mxGeometry x="724.5" y="128" width="280" height="570" as="geometry" />
        </mxCell>
        <mxCell id="33" value="process&#xa;command" style="" parent="4" vertex="1">
          <mxGeometry x="90" y="405" width="110" height="50" as="geometry" />
        </mxCell>
        <mxCell id="35" value="" style="edgeStyle=elbowEdgeStyle;elbow=horizontal;strokeColor=#FF0000;endArrow=open;endFill=1;rounded=0;entryX=0.25;entryY=0.5;entryPerimeter=0" parent="4" target="25" edge="1">
          <mxGeometry width="100" height="100" relative="1" as="geometry">
            <mxPoint x="-30" y="410" as="sourcePoint" />
            <mxPoint x="-120" y="120" as="targetPoint" />
            <Array as="points">
              <mxPoint x="-10" y="135" />
            </Array>
          </mxGeometry>
        </mxCell>
        <mxCell id="37" value="" style="edgeStyle=none;strokeColor=#FF0000;endArrow=open;endFill=1;rounded=0" parent="4" target="33" edge="1">
          <mxGeometry width="100" height="100" relative="1" as="geometry">
            <mxPoint x="-30" y="429.5" as="sourcePoint" />
            <mxPoint x="90" y="429.5" as="targetPoint" />
          </mxGeometry>
        </mxCell>
        <mxCell id="38" value="" style="ellipse;shape=endState;fillColor=#000000;strokeColor=#ff0000" parent="4" vertex="1">
          <mxGeometry x="130" y="500" width="30" height="30" as="geometry" />
        </mxCell>
        <mxCell id="39" value="" style="endArrow=open;strokeColor=#FF0000;endFill=1;rounded=0" parent="4" source="33" target="38" edge="1">
          <mxGeometry relative="1" as="geometry" />
        </mxCell>
        <mxCell id="20" value="" style="endArrow=open;strokeColor=#FF0000;endFill=1;rounded=0" parent="1" source="10" target="18" edge="1">
          <mxGeometry relative="1" as="geometry" />
        </mxCell>
        <UserObject label="" plantUmlData="{&#xa;  &quot;data&quot;: &quot;@startuml LibraryManagementSystem\n\npackage data {\n  class BookDat\n  class BorrowerDat\n  class LoanSlipDat\n}\n\npackage entity {\n  class Account\n  class Book\n  class Borrower\n  class LoanSlip\n}\n\npackage list {\n  class ListBook\n  class NodeBook\n  class ListBorrower\n  class NodeBorrower\n  class ListLoanSlip\n  class NodeLoanSlip\n}\n\npackage service {\n  class BookManagement\n  class BorrowerManagement\n  class LoanSlipManagement\n  class Menu\n}\n\npackage logic {\n  class BookLogic\n  class BorrowerLogic\n  class LoanSlipLogic\n}\n\nclass LibraryManagementSystem {\n  + main(args: String[]): void\n}\n\nLibraryManagementSystem --&gt; data.BookDat\nLibraryManagementSystem --&gt; data.BorrowerDat\nLibraryManagementSystem --&gt; data.LoanSlipDat\nLibraryManagementSystem --&gt; entity.Account\nLibraryManagementSystem --&gt; entity.Book\nLibraryManagementSystem --&gt; entity.Borrower\nLibraryManagementSystem --&gt; entity.LoanSlip\nLibraryManagementSystem --&gt; list.ListBook\nLibraryManagementSystem --&gt; list.ListBorrower\nLibraryManagementSystem --&gt; list.ListLoanSlip\nLibraryManagementSystem --&gt; service.BookManagement\nLibraryManagementSystem --&gt; service.BorrowerManagement\nLibraryManagementSystem --&gt; service.LoanSlipManagement\nLibraryManagementSystem --&gt; service.Menu\nBookDat --&gt; ListBook\nBorrowerDat --&gt; ListBorrower\nBook --&gt; Displayable\nBorrower --|&gt; Person\nBorrower --&gt; Displayable\nLoanSlip --&gt; Displayable\nListBook \&quot;1\&quot; --&gt; \&quot;*\&quot; NodeBook\nNodeBook \&quot;1\&quot; --&gt; \&quot;1\&quot; Book\nListBorrower \&quot;1\&quot; --&gt; \&quot;*\&quot; NodeBorrower\nNodeBorrower \&quot;1\&quot; --&gt; \&quot;1\&quot; Borrower\nListLoanSlip \&quot;1\&quot; --&gt; \&quot;*\&quot; NodeLoanSlip\nNodeLoanSlip \&quot;1\&quot; --&gt; \&quot;1\&quot; LoanSlip\nBookLogic --&gt; BookDat\nBookLogic --&gt; ListBook\nLoanSlipLogic --&gt; LoanSlipDat\nLoanSlipLogic --&gt; ListLoanSlip\nBookManagement --&gt; BookLogic\nBorrowerManagement --&gt; BookLogic\nBorrowerManagement --&gt; BorrowerLogic\nBorrowerManagement --&gt; ListBorrower\nLibraryManagementSystem --&gt; Menu\n\n@enduml\n&quot;,&#xa;  &quot;format&quot;: &quot;svg&quot;&#xa;}" id="hMcKetJxZZtpB5dIkUFT-41">
          <mxCell style="shape=image;noLabel=1;verticalAlign=top;aspect=fixed;imageAspect=0;image=data:image/svg+xml,PD94bWwgdmVyc2lvbj0iMS4wIiBlbmNvZGluZz0idXMtYXNjaWkiIHN0YW5kYWxvbmU9Im5vIj8+PHN2ZyB4bWxucz0iaHR0cDovL3d3dy53My5vcmcvMjAwMC9zdmciIHhtbG5zOnhsaW5rPSJodHRwOi8vd3d3LnczLm9yZy8xOTk5L3hsaW5rIiBjb250ZW50U3R5bGVUeXBlPSJ0ZXh0L2NzcyIgaGVpZ2h0PSI4ODVweCIgcHJlc2VydmVBc3BlY3RSYXRpbz0ibm9uZSIgc3R5bGU9IndpZHRoOjE0MjJweDtoZWlnaHQ6ODg1cHg7YmFja2dyb3VuZDojRkZGRkZGOyIgdmVyc2lvbj0iMS4xIiB2aWV3Qm94PSIwIDAgMTQyMiA4ODUiIHdpZHRoPSIxNDIycHgiIHpvb21BbmRQYW49Im1hZ25pZnkiPjxkZWZzLz48Zz48IS0tY2x1c3RlciBkYXRhLS0+PGcgaWQ9ImNsdXN0ZXJfZGF0YSI+PHBhdGggZD0iTTYyOC41LDMzOSBMNjU3LjUsMzM5IEEzLjc1LDMuNzUgMCAwIDEgNjYwLDM0MS41IEw2NjcsMzU5Ljk4NDQgTDEwMjYuNSwzNTkuOTg0NCBBMi41LDIuNSAwIDAgMSAxMDI5LDM2Mi40ODQ0IEwxMDI5LDQzMy41IEEyLjUsMi41IDAgMCAxIDEwMjYuNSw0MzYgTDYyOC41LDQzNiBBMi41LDIuNSAwIDAgMSA2MjYsNDMzLjUgTDYyNiwzNDEuNSBBMi41LDIuNSAwIDAgMSA2MjguNSwzMzkgIiBmaWxsPSJub25lIiBzdHlsZT0ic3Ryb2tlOiMwMDAwMDA7c3Ryb2tlLXdpZHRoOjEuNTsiLz48bGluZSBzdHlsZT0ic3Ryb2tlOiMwMDAwMDA7c3Ryb2tlLXdpZHRoOjEuNTsiIHgxPSI2MjYiIHgyPSI2NjciIHkxPSIzNTkuOTg0NCIgeTI9IjM1OS45ODQ0Ii8+PHRleHQgZmlsbD0iIzAwMDAwMCIgZm9udC1mYW1pbHk9InNhbnMtc2VyaWYiIGZvbnQtc2l6ZT0iMTQiIGZvbnQtd2VpZ2h0PSJib2xkIiBsZW5ndGhBZGp1c3Q9InNwYWNpbmciIHRleHRMZW5ndGg9IjI4IiB4PSI2MzAiIHk9IjM1NC4yMzQ0Ij5kYXRhPC90ZXh0PjwvZz48IS0tY2x1c3RlciBlbnRpdHktLT48ZyBpZD0iY2x1c3Rlcl9lbnRpdHkiPjxwYXRoIGQ9Ik04LjUsNjg5IEw1MS41LDY4OSBBMy43NSwzLjc1IDAgMCAxIDU0LDY5MS41IEw2MSw3MDkuOTg0NCBMNDU5LjUsNzA5Ljk4NDQgQTIuNSwyLjUgMCAwIDEgNDYyLDcxMi40ODQ0IEw0NjIsNzgzLjUgQTIuNSwyLjUgMCAwIDEgNDU5LjUsNzg2IEw4LjUsNzg2IEEyLjUsMi41IDAgMCAxIDYsNzgzLjUgTDYsNjkxLjUgQTIuNSwyLjUgMCAwIDEgOC41LDY4OSAiIGZpbGw9Im5vbmUiIHN0eWxlPSJzdHJva2U6IzAwMDAwMDtzdHJva2Utd2lkdGg6MS41OyIvPjxsaW5lIHN0eWxlPSJzdHJva2U6IzAwMDAwMDtzdHJva2Utd2lkdGg6MS41OyIgeDE9IjYiIHgyPSI2MSIgeTE9IjcwOS45ODQ0IiB5Mj0iNzA5Ljk4NDQiLz48dGV4dCBmaWxsPSIjMDAwMDAwIiBmb250LWZhbWlseT0ic2Fucy1zZXJpZiIgZm9udC1zaXplPSIxNCIgZm9udC13ZWlnaHQ9ImJvbGQiIGxlbmd0aEFkanVzdD0ic3BhY2luZyIgdGV4dExlbmd0aD0iNDIiIHg9IjEwIiB5PSI3MDQuMjM0NCI+ZW50aXR5PC90ZXh0PjwvZz48IS0tY2x1c3RlciBsaXN0LS0+PGcgaWQ9ImNsdXN0ZXJfbGlzdCI+PHBhdGggZD0iTTM0NS41LDQ2MCBMMzc0LjUsNDYwIEEzLjc1LDMuNzUgMCAwIDEgMzc3LDQ2Mi41IEwzODQsNDgwLjk4NDQgTDc2NC41LDQ4MC45ODQ0IEEyLjUsMi41IDAgMCAxIDc2Nyw0ODMuNDg0NCBMNzY3LDY2Mi41IEEyLjUsMi41IDAgMCAxIDc2NC41LDY2NSBMMzQ1LjUsNjY1IEEyLjUsMi41IDAgMCAxIDM0Myw2NjIuNSBMMzQzLDQ2Mi41IEEyLjUsMi41IDAgMCAxIDM0NS41LDQ2MCAiIGZpbGw9Im5vbmUiIHN0eWxlPSJzdHJva2U6IzAwMDAwMDtzdHJva2Utd2lkdGg6MS41OyIvPjxsaW5lIHN0eWxlPSJzdHJva2U6IzAwMDAwMDtzdHJva2Utd2lkdGg6MS41OyIgeDE9IjM0MyIgeDI9IjM4NCIgeTE9IjQ4MC45ODQ0IiB5Mj0iNDgwLjk4NDQiLz48dGV4dCBmaWxsPSIjMDAwMDAwIiBmb250LWZhbWlseT0ic2Fucy1zZXJpZiIgZm9udC1zaXplPSIxNCIgZm9udC13ZWlnaHQ9ImJvbGQiIGxlbmd0aEFkanVzdD0ic3BhY2luZyIgdGV4dExlbmd0aD0iMjgiIHg9IjM0NyIgeT0iNDc1LjIzNDQiPmxpc3Q8L3RleHQ+PC9nPjwhLS1jbHVzdGVyIHNlcnZpY2UtLT48ZyBpZD0iY2x1c3Rlcl9zZXJ2aWNlIj48cGF0aCBkPSJNMzE1LjUsOTcgTDM2NS41LDk3IEEzLjc1LDMuNzUgMCAwIDEgMzY4LDk5LjUgTDM3NSwxMTcuOTg0NCBMOTU4LjUsMTE3Ljk4NDQgQTIuNSwyLjUgMCAwIDEgOTYxLDEyMC40ODQ0IEw5NjEsMTkxLjUgQTIuNSwyLjUgMCAwIDEgOTU4LjUsMTk0IEwzMTUuNSwxOTQgQTIuNSwyLjUgMCAwIDEgMzEzLDE5MS41IEwzMTMsOTkuNSBBMi41LDIuNSAwIDAgMSAzMTUuNSw5NyAiIGZpbGw9Im5vbmUiIHN0eWxlPSJzdHJva2U6IzAwMDAwMDtzdHJva2Utd2lkdGg6MS41OyIvPjxsaW5lIHN0eWxlPSJzdHJva2U6IzAwMDAwMDtzdHJva2Utd2lkdGg6MS41OyIgeDE9IjMxMyIgeDI9IjM3NSIgeTE9IjExNy45ODQ0IiB5Mj0iMTE3Ljk4NDQiLz48dGV4dCBmaWxsPSIjMDAwMDAwIiBmb250LWZhbWlseT0ic2Fucy1zZXJpZiIgZm9udC1zaXplPSIxNCIgZm9udC13ZWlnaHQ9ImJvbGQiIGxlbmd0aEFkanVzdD0ic3BhY2luZyIgdGV4dExlbmd0aD0iNDkiIHg9IjMxNyIgeT0iMTEyLjIzNDQiPnNlcnZpY2U8L3RleHQ+PC9nPjwhLS1jbHVzdGVyIGxvZ2ljLS0+PGcgaWQ9ImNsdXN0ZXJfbG9naWMiPjxwYXRoIGQ9Ik00NDguNSwyMTggTDQ4NC41LDIxOCBBMy43NSwzLjc1IDAgMCAxIDQ4NywyMjAuNSBMNDk0LDIzOC45ODQ0IEw4ODguNSwyMzguOTg0NCBBMi41LDIuNSAwIDAgMSA4OTEsMjQxLjQ4NDQgTDg5MSwzMTIuNSBBMi41LDIuNSAwIDAgMSA4ODguNSwzMTUgTDQ0OC41LDMxNSBBMi41LDIuNSAwIDAgMSA0NDYsMzEyLjUgTDQ0NiwyMjAuNSBBMi41LDIuNSAwIDAgMSA0NDguNSwyMTggIiBmaWxsPSJub25lIiBzdHlsZT0ic3Ryb2tlOiMwMDAwMDA7c3Ryb2tlLXdpZHRoOjEuNTsiLz48bGluZSBzdHlsZT0ic3Ryb2tlOiMwMDAwMDA7c3Ryb2tlLXdpZHRoOjEuNTsiIHgxPSI0NDYiIHgyPSI0OTQiIHkxPSIyMzguOTg0NCIgeTI9IjIzOC45ODQ0Ii8+PHRleHQgZmlsbD0iIzAwMDAwMCIgZm9udC1mYW1pbHk9InNhbnMtc2VyaWYiIGZvbnQtc2l6ZT0iMTQiIGZvbnQtd2VpZ2h0PSJib2xkIiBsZW5ndGhBZGp1c3Q9InNwYWNpbmciIHRleHRMZW5ndGg9IjM1IiB4PSI0NTAiIHk9IjIzMy4yMzQ0Ij5sb2dpYzwvdGV4dD48L2c+PCEtLWNsYXNzIEJvb2tEYXQtLT48ZyBpZD0iZWxlbV9Cb29rRGF0Ij48cmVjdCBjb2RlTGluZT0iMiIgZmlsbD0iI0YxRjFGMSIgaGVpZ2h0PSI0OCIgaWQ9IkJvb2tEYXQiIHJ4PSIyLjUiIHJ5PSIyLjUiIHN0eWxlPSJzdHJva2U6IzE4MTgxODtzdHJva2Utd2lkdGg6MC41OyIgd2lkdGg9IjgxIiB4PSI3ODYuNSIgeT0iMzcyIi8+PGVsbGlwc2UgY3g9IjgwMS41IiBjeT0iMzg4IiBmaWxsPSIjQUREMUIyIiByeD0iMTEiIHJ5PSIxMSIgc3R5bGU9InN0cm9rZTojMTgxODE4O3N0cm9rZS13aWR0aDoxLjA7Ii8+PHBhdGggZD0iTTc5OS4xMjUsMzkyLjI1IEw3OTkuMTI1LDM5NCBMODA0LjA2MjUsMzk0IEw4MDQuMDYyNSwzOTIuMjUgTDc5OS4xMjUsMzkyLjI1IFogTTc5OS44MTI1LDM5Mi45Mzc1IFE3OTkuODEyNSwzOTIuOTM3NSA3OTkuODEyNSwzODMuNzUgTDc5OC4wNjI1LDM4My43NSBRNzk4LjA2MjUsMzgzLjc1IDc5OC4wNjI1LDM5Mi45Mzc1IEw3OTkuODEyNSwzOTIuOTM3NSBaIE04MDMuMzc1LDM5Mi45Mzc1IEw4MDUuMTI1LDM5Mi45Mzc1IFE4MDUuMTI1LDM5Mi45Mzc1IDgwNS4xMjUsMzkwLjEyNSBMODAzLjM3NSwzOTAuMTI1IFE4MDMuMzc1LDM5MC4xMjUgODAzLjM3NSwzOTIuOTM3NSBaIE04MDMuMzc1LDM4My43NSBRODAzLjM3NSwzODMuNzUgODAzLjM3NSwzODYuNTYyNSBMODA1LjEyNSwzODYuNTYyNSBRODA1LjEyNSwzODYuNTYyNSA4MDUuMTI1LDM4My43NSBMODAzLjM3NSwzODMuNzUgWiBNNzk5LjEyNSwzODQuNDM3NSBMODA0LjA2MjUsMzg0LjQzNzUgTDgwNC4wNjI1LDM4Mi42ODc1IEw3OTkuMTI1LDM4Mi42ODc1IEw3OTkuMTI1LDM4NC40Mzc1IFogIiBmaWxsPSIjMDAwMDAwIi8+PHRleHQgZmlsbD0iIzAwMDAwMCIgZm9udC1mYW1pbHk9InNhbnMtc2VyaWYiIGZvbnQtc2l6ZT0iMTQiIGxlbmd0aEFkanVzdD0ic3BhY2luZyIgdGV4dExlbmd0aD0iNDkiIHg9IjgxNS41IiB5PSIzOTMuNzQyMiI+Qm9va0RhdDwvdGV4dD48bGluZSBzdHlsZT0ic3Ryb2tlOiMxODE4MTg7c3Ryb2tlLXdpZHRoOjAuNTsiIHgxPSI3ODcuNSIgeDI9Ijg2Ni41IiB5MT0iNDA0IiB5Mj0iNDA0Ii8+PGxpbmUgc3R5bGU9InN0cm9rZTojMTgxODE4O3N0cm9rZS13aWR0aDowLjU7IiB4MT0iNzg3LjUiIHgyPSI4NjYuNSIgeTE9IjQxMiIgeTI9IjQxMiIvPjwvZz48IS0tY2xhc3MgQm9ycm93ZXJEYXQtLT48ZyBpZD0iZWxlbV9Cb3Jyb3dlckRhdCI+PHJlY3QgY29kZUxpbmU9IjMiIGZpbGw9IiNGMUYxRjEiIGhlaWdodD0iNDgiIGlkPSJCb3Jyb3dlckRhdCIgcng9IjIuNSIgcnk9IjIuNSIgc3R5bGU9InN0cm9rZTojMTgxODE4O3N0cm9rZS13aWR0aDowLjU7IiB3aWR0aD0iMTEwIiB4PSI5MDMiIHk9IjM3MiIvPjxlbGxpcHNlIGN4PSI5MTgiIGN5PSIzODgiIGZpbGw9IiNBREQxQjIiIHJ4PSIxMSIgcnk9IjExIiBzdHlsZT0ic3Ryb2tlOiMxODE4MTg7c3Ryb2tlLXdpZHRoOjEuMDsiLz48cGF0aCBkPSJNOTE1LjYyNSwzOTIuMjUgTDkxNS42MjUsMzk0IEw5MjAuNTYyNSwzOTQgTDkyMC41NjI1LDM5Mi4yNSBMOTE1LjYyNSwzOTIuMjUgWiBNOTE2LjMxMjUsMzkyLjkzNzUgUTkxNi4zMTI1LDM5Mi45Mzc1IDkxNi4zMTI1LDM4My43NSBMOTE0LjU2MjUsMzgzLjc1IFE5MTQuNTYyNSwzODMuNzUgOTE0LjU2MjUsMzkyLjkzNzUgTDkxNi4zMTI1LDM5Mi45Mzc1IFogTTkxOS44NzUsMzkyLjkzNzUgTDkyMS42MjUsMzkyLjkzNzUgUTkyMS42MjUsMzkyLjkzNzUgOTIxLjYyNSwzOTAuMTI1IEw5MTkuODc1LDM5MC4xMjUgUTkxOS44NzUsMzkwLjEyNSA5MTkuODc1LDM5Mi45Mzc1IFogTTkxOS44NzUsMzgzLjc1IFE5MTkuODc1LDM4My43NSA5MTkuODc1LDM4Ni41NjI1IEw5MjEuNjI1LDM4Ni41NjI1IFE5MjEuNjI1LDM4Ni41NjI1IDkyMS42MjUsMzgzLjc1IEw5MTkuODc1LDM4My43NSBaIE05MTUuNjI1LDM4NC40Mzc1IEw5MjAuNTYyNSwzODQuNDM3NSBMOTIwLjU2MjUsMzgyLjY4NzUgTDkxNS42MjUsMzgyLjY4NzUgTDkxNS42MjUsMzg0LjQzNzUgWiAiIGZpbGw9IiMwMDAwMDAiLz48dGV4dCBmaWxsPSIjMDAwMDAwIiBmb250LWZhbWlseT0ic2Fucy1zZXJpZiIgZm9udC1zaXplPSIxNCIgbGVuZ3RoQWRqdXN0PSJzcGFjaW5nIiB0ZXh0TGVuZ3RoPSI3OCIgeD0iOTMyIiB5PSIzOTMuNzQyMiI+Qm9ycm93ZXJEYXQ8L3RleHQ+PGxpbmUgc3R5bGU9InN0cm9rZTojMTgxODE4O3N0cm9rZS13aWR0aDowLjU7IiB4MT0iOTA0IiB4Mj0iMTAxMiIgeTE9IjQwNCIgeTI9IjQwNCIvPjxsaW5lIHN0eWxlPSJzdHJva2U6IzE4MTgxODtzdHJva2Utd2lkdGg6MC41OyIgeDE9IjkwNCIgeDI9IjEwMTIiIHkxPSI0MTIiIHkyPSI0MTIiLz48L2c+PCEtLWNsYXNzIExvYW5TbGlwRGF0LS0+PGcgaWQ9ImVsZW1fTG9hblNsaXBEYXQiPjxyZWN0IGNvZGVMaW5lPSI0IiBmaWxsPSIjRjFGMUYxIiBoZWlnaHQ9IjQ4IiBpZD0iTG9hblNsaXBEYXQiIHJ4PSIyLjUiIHJ5PSIyLjUiIHN0eWxlPSJzdHJva2U6IzE4MTgxODtzdHJva2Utd2lkdGg6MC41OyIgd2lkdGg9IjEwOSIgeD0iNjQyLjUiIHk9IjM3MiIvPjxlbGxpcHNlIGN4PSI2NTcuNSIgY3k9IjM4OCIgZmlsbD0iI0FERDFCMiIgcng9IjExIiByeT0iMTEiIHN0eWxlPSJzdHJva2U6IzE4MTgxODtzdHJva2Utd2lkdGg6MS4wOyIvPjxwYXRoIGQ9Ik02NTUuMTI1LDM5Mi4yNSBMNjU1LjEyNSwzOTQgTDY2MC4wNjI1LDM5NCBMNjYwLjA2MjUsMzkyLjI1IEw2NTUuMTI1LDM5Mi4yNSBaIE02NTUuODEyNSwzOTIuOTM3NSBRNjU1LjgxMjUsMzkyLjkzNzUgNjU1LjgxMjUsMzgzLjc1IEw2NTQuMDYyNSwzODMuNzUgUTY1NC4wNjI1LDM4My43NSA2NTQuMDYyNSwzOTIuOTM3NSBMNjU1LjgxMjUsMzkyLjkzNzUgWiBNNjU5LjM3NSwzOTIuOTM3NSBMNjYxLjEyNSwzOTIuOTM3NSBRNjYxLjEyNSwzOTIuOTM3NSA2NjEuMTI1LDM5MC4xMjUgTDY1OS4zNzUsMzkwLjEyNSBRNjU5LjM3NSwzOTAuMTI1IDY1OS4zNzUsMzkyLjkzNzUgWiBNNjU5LjM3NSwzODMuNzUgUTY1OS4zNzUsMzgzLjc1IDY1OS4zNzUsMzg2LjU2MjUgTDY2MS4xMjUsMzg2LjU2MjUgUTY2MS4xMjUsMzg2LjU2MjUgNjYxLjEyNSwzODMuNzUgTDY1OS4zNzUsMzgzLjc1IFogTTY1NS4xMjUsMzg0LjQzNzUgTDY2MC4wNjI1LDM4NC40Mzc1IEw2NjAuMDYyNSwzODIuNjg3NSBMNjU1LjEyNSwzODIuNjg3NSBMNjU1LjEyNSwzODQuNDM3NSBaICIgZmlsbD0iIzAwMDAwMCIvPjx0ZXh0IGZpbGw9IiMwMDAwMDAiIGZvbnQtZmFtaWx5PSJzYW5zLXNlcmlmIiBmb250LXNpemU9IjE0IiBsZW5ndGhBZGp1c3Q9InNwYWNpbmciIHRleHRMZW5ndGg9Ijc3IiB4PSI2NzEuNSIgeT0iMzkzLjc0MjIiPkxvYW5TbGlwRGF0PC90ZXh0PjxsaW5lIHN0eWxlPSJzdHJva2U6IzE4MTgxODtzdHJva2Utd2lkdGg6MC41OyIgeDE9IjY0My41IiB4Mj0iNzUwLjUiIHkxPSI0MDQiIHkyPSI0MDQiLz48bGluZSBzdHlsZT0ic3Ryb2tlOiMxODE4MTg7c3Ryb2tlLXdpZHRoOjAuNTsiIHgxPSI2NDMuNSIgeDI9Ijc1MC41IiB5MT0iNDEyIiB5Mj0iNDEyIi8+PC9nPjwhLS1jbGFzcyBBY2NvdW50LS0+PGcgaWQ9ImVsZW1fQWNjb3VudCI+PHJlY3QgY29kZUxpbmU9IjgiIGZpbGw9IiNGMUYxRjEiIGhlaWdodD0iNDgiIGlkPSJBY2NvdW50IiByeD0iMi41IiByeT0iMi41IiBzdHlsZT0ic3Ryb2tlOiMxODE4MTg7c3Ryb2tlLXdpZHRoOjAuNTsiIHdpZHRoPSI4MSIgeD0iMjIuNSIgeT0iNzIyIi8+PGVsbGlwc2UgY3g9IjM3LjUiIGN5PSI3MzgiIGZpbGw9IiNBREQxQjIiIHJ4PSIxMSIgcnk9IjExIiBzdHlsZT0ic3Ryb2tlOiMxODE4MTg7c3Ryb2tlLXdpZHRoOjEuMDsiLz48cGF0aCBkPSJNMzUuMTI1LDc0Mi4yNSBMMzUuMTI1LDc0NCBMNDAuMDYyNSw3NDQgTDQwLjA2MjUsNzQyLjI1IEwzNS4xMjUsNzQyLjI1IFogTTM1LjgxMjUsNzQyLjkzNzUgUTM1LjgxMjUsNzQyLjkzNzUgMzUuODEyNSw3MzMuNzUgTDM0LjA2MjUsNzMzLjc1IFEzNC4wNjI1LDczMy43NSAzNC4wNjI1LDc0Mi45Mzc1IEwzNS44MTI1LDc0Mi45Mzc1IFogTTM5LjM3NSw3NDIuOTM3NSBMNDEuMTI1LDc0Mi45Mzc1IFE0MS4xMjUsNzQyLjkzNzUgNDEuMTI1LDc0MC4xMjUgTDM5LjM3NSw3NDAuMTI1IFEzOS4zNzUsNzQwLjEyNSAzOS4zNzUsNzQyLjkzNzUgWiBNMzkuMzc1LDczMy43NSBRMzkuMzc1LDczMy43NSAzOS4zNzUsNzM2LjU2MjUgTDQxLjEyNSw3MzYuNTYyNSBRNDEuMTI1LDczNi41NjI1IDQxLjEyNSw3MzMuNzUgTDM5LjM3NSw3MzMuNzUgWiBNMzUuMTI1LDczNC40Mzc1IEw0MC4wNjI1LDczNC40Mzc1IEw0MC4wNjI1LDczMi42ODc1IEwzNS4xMjUsNzMyLjY4NzUgTDM1LjEyNSw3MzQuNDM3NSBaICIgZmlsbD0iIzAwMDAwMCIvPjx0ZXh0IGZpbGw9IiMwMDAwMDAiIGZvbnQtZmFtaWx5PSJzYW5zLXNlcmlmIiBmb250LXNpemU9IjE0IiBsZW5ndGhBZGp1c3Q9InNwYWNpbmciIHRleHRMZW5ndGg9IjQ5IiB4PSI1MS41IiB5PSI3NDMuNzQyMiI+QWNjb3VudDwvdGV4dD48bGluZSBzdHlsZT0ic3Ryb2tlOiMxODE4MTg7c3Ryb2tlLXdpZHRoOjAuNTsiIHgxPSIyMy41IiB4Mj0iMTAyLjUiIHkxPSI3NTQiIHkyPSI3NTQiLz48bGluZSBzdHlsZT0ic3Ryb2tlOiMxODE4MTg7c3Ryb2tlLXdpZHRoOjAuNTsiIHgxPSIyMy41IiB4Mj0iMTAyLjUiIHkxPSI3NjIiIHkyPSI3NjIiLz48L2c+PCEtLWNsYXNzIEJvb2stLT48ZyBpZD0iZWxlbV9Cb29rIj48cmVjdCBjb2RlTGluZT0iOSIgZmlsbD0iI0YxRjFGMSIgaGVpZ2h0PSI0OCIgaWQ9IkJvb2siIHJ4PSIyLjUiIHJ5PSIyLjUiIHN0eWxlPSJzdHJva2U6IzE4MTgxODtzdHJva2Utd2lkdGg6MC41OyIgd2lkdGg9IjYwIiB4PSIyNjIiIHk9IjcyMiIvPjxlbGxpcHNlIGN4PSIyNzciIGN5PSI3MzgiIGZpbGw9IiNBREQxQjIiIHJ4PSIxMSIgcnk9IjExIiBzdHlsZT0ic3Ryb2tlOiMxODE4MTg7c3Ryb2tlLXdpZHRoOjEuMDsiLz48cGF0aCBkPSJNMjc0LjYyNSw3NDIuMjUgTDI3NC42MjUsNzQ0IEwyNzkuNTYyNSw3NDQgTDI3OS41NjI1LDc0Mi4yNSBMMjc0LjYyNSw3NDIuMjUgWiBNMjc1LjMxMjUsNzQyLjkzNzUgUTI3NS4zMTI1LDc0Mi45Mzc1IDI3NS4zMTI1LDczMy43NSBMMjczLjU2MjUsNzMzLjc1IFEyNzMuNTYyNSw3MzMuNzUgMjczLjU2MjUsNzQyLjkzNzUgTDI3NS4zMTI1LDc0Mi45Mzc1IFogTTI3OC44NzUsNzQyLjkzNzUgTDI4MC42MjUsNzQyLjkzNzUgUTI4MC42MjUsNzQyLjkzNzUgMjgwLjYyNSw3NDAuMTI1IEwyNzguODc1LDc0MC4xMjUgUTI3OC44NzUsNzQwLjEyNSAyNzguODc1LDc0Mi45Mzc1IFogTTI3OC44NzUsNzMzLjc1IFEyNzguODc1LDczMy43NSAyNzguODc1LDczNi41NjI1IEwyODAuNjI1LDczNi41NjI1IFEyODAuNjI1LDczNi41NjI1IDI4MC42MjUsNzMzLjc1IEwyNzguODc1LDczMy43NSBaIE0yNzQuNjI1LDczNC40Mzc1IEwyNzkuNTYyNSw3MzQuNDM3NSBMMjc5LjU2MjUsNzMyLjY4NzUgTDI3NC42MjUsNzMyLjY4NzUgTDI3NC42MjUsNzM0LjQzNzUgWiAiIGZpbGw9IiMwMDAwMDAiLz48dGV4dCBmaWxsPSIjMDAwMDAwIiBmb250LWZhbWlseT0ic2Fucy1zZXJpZiIgZm9udC1zaXplPSIxNCIgbGVuZ3RoQWRqdXN0PSJzcGFjaW5nIiB0ZXh0TGVuZ3RoPSIyOCIgeD0iMjkxIiB5PSI3NDMuNzQyMiI+Qm9vazwvdGV4dD48bGluZSBzdHlsZT0ic3Ryb2tlOiMxODE4MTg7c3Ryb2tlLXdpZHRoOjAuNTsiIHgxPSIyNjMiIHgyPSIzMjEiIHkxPSI3NTQiIHkyPSI3NTQiLz48bGluZSBzdHlsZT0ic3Ryb2tlOiMxODE4MTg7c3Ryb2tlLXdpZHRoOjAuNTsiIHgxPSIyNjMiIHgyPSIzMjEiIHkxPSI3NjIiIHkyPSI3NjIiLz48L2c+PCEtLWNsYXNzIEJvcnJvd2VyLS0+PGcgaWQ9ImVsZW1fQm9ycm93ZXIiPjxyZWN0IGNvZGVMaW5lPSIxMCIgZmlsbD0iI0YxRjFGMSIgaGVpZ2h0PSI0OCIgaWQ9IkJvcnJvd2VyIiByeD0iMi41IiByeT0iMi41IiBzdHlsZT0ic3Ryb2tlOiMxODE4MTg7c3Ryb2tlLXdpZHRoOjAuNTsiIHdpZHRoPSI4OSIgeD0iMzU3LjUiIHk9IjcyMiIvPjxlbGxpcHNlIGN4PSIzNzIuNSIgY3k9IjczOCIgZmlsbD0iI0FERDFCMiIgcng9IjExIiByeT0iMTEiIHN0eWxlPSJzdHJva2U6IzE4MTgxODtzdHJva2Utd2lkdGg6MS4wOyIvPjxwYXRoIGQ9Ik0zNzAuMTI1LDc0Mi4yNSBMMzcwLjEyNSw3NDQgTDM3NS4wNjI1LDc0NCBMMzc1LjA2MjUsNzQyLjI1IEwzNzAuMTI1LDc0Mi4yNSBaIE0zNzAuODEyNSw3NDIuOTM3NSBRMzcwLjgxMjUsNzQyLjkzNzUgMzcwLjgxMjUsNzMzLjc1IEwzNjkuMDYyNSw3MzMuNzUgUTM2OS4wNjI1LDczMy43NSAzNjkuMDYyNSw3NDIuOTM3NSBMMzcwLjgxMjUsNzQyLjkzNzUgWiBNMzc0LjM3NSw3NDIuOTM3NSBMMzc2LjEyNSw3NDIuOTM3NSBRMzc2LjEyNSw3NDIuOTM3NSAzNzYuMTI1LDc0MC4xMjUgTDM3NC4zNzUsNzQwLjEyNSBRMzc0LjM3NSw3NDAuMTI1IDM3NC4zNzUsNzQyLjkzNzUgWiBNMzc0LjM3NSw3MzMuNzUgUTM3NC4zNzUsNzMzLjc1IDM3NC4zNzUsNzM2LjU2MjUgTDM3Ni4xMjUsNzM2LjU2MjUgUTM3Ni4xMjUsNzM2LjU2MjUgMzc2LjEyNSw3MzMuNzUgTDM3NC4zNzUsNzMzLjc1IFogTTM3MC4xMjUsNzM0LjQzNzUgTDM3NS4wNjI1LDczNC40Mzc1IEwzNzUuMDYyNSw3MzIuNjg3NSBMMzcwLjEyNSw3MzIuNjg3NSBMMzcwLjEyNSw3MzQuNDM3NSBaICIgZmlsbD0iIzAwMDAwMCIvPjx0ZXh0IGZpbGw9IiMwMDAwMDAiIGZvbnQtZmFtaWx5PSJzYW5zLXNlcmlmIiBmb250LXNpemU9IjE0IiBsZW5ndGhBZGp1c3Q9InNwYWNpbmciIHRleHRMZW5ndGg9IjU3IiB4PSIzODYuNSIgeT0iNzQzLjc0MjIiPkJvcnJvd2VyPC90ZXh0PjxsaW5lIHN0eWxlPSJzdHJva2U6IzE4MTgxODtzdHJva2Utd2lkdGg6MC41OyIgeDE9IjM1OC41IiB4Mj0iNDQ1LjUiIHkxPSI3NTQiIHkyPSI3NTQiLz48bGluZSBzdHlsZT0ic3Ryb2tlOiMxODE4MTg7c3Ryb2tlLXdpZHRoOjAuNTsiIHgxPSIzNTguNSIgeDI9IjQ0NS41IiB5MT0iNzYyIiB5Mj0iNzYyIi8+PC9nPjwhLS1jbGFzcyBMb2FuU2xpcC0tPjxnIGlkPSJlbGVtX0xvYW5TbGlwIj48cmVjdCBjb2RlTGluZT0iMTEiIGZpbGw9IiNGMUYxRjEiIGhlaWdodD0iNDgiIGlkPSJMb2FuU2xpcCIgcng9IjIuNSIgcnk9IjIuNSIgc3R5bGU9InN0cm9rZTojMTgxODE4O3N0cm9rZS13aWR0aDowLjU7IiB3aWR0aD0iODgiIHg9IjEzOSIgeT0iNzIyIi8+PGVsbGlwc2UgY3g9IjE1NCIgY3k9IjczOCIgZmlsbD0iI0FERDFCMiIgcng9IjExIiByeT0iMTEiIHN0eWxlPSJzdHJva2U6IzE4MTgxODtzdHJva2Utd2lkdGg6MS4wOyIvPjxwYXRoIGQ9Ik0xNTEuNjI1LDc0Mi4yNSBMMTUxLjYyNSw3NDQgTDE1Ni41NjI1LDc0NCBMMTU2LjU2MjUsNzQyLjI1IEwxNTEuNjI1LDc0Mi4yNSBaIE0xNTIuMzEyNSw3NDIuOTM3NSBRMTUyLjMxMjUsNzQyLjkzNzUgMTUyLjMxMjUsNzMzLjc1IEwxNTAuNTYyNSw3MzMuNzUgUTE1MC41NjI1LDczMy43NSAxNTAuNTYyNSw3NDIuOTM3NSBMMTUyLjMxMjUsNzQyLjkzNzUgWiBNMTU1Ljg3NSw3NDIuOTM3NSBMMTU3LjYyNSw3NDIuOTM3NSBRMTU3LjYyNSw3NDIuOTM3NSAxNTcuNjI1LDc0MC4xMjUgTDE1NS44NzUsNzQwLjEyNSBRMTU1Ljg3NSw3NDAuMTI1IDE1NS44NzUsNzQyLjkzNzUgWiBNMTU1Ljg3NSw3MzMuNzUgUTE1NS44NzUsNzMzLjc1IDE1NS44NzUsNzM2LjU2MjUgTDE1Ny42MjUsNzM2LjU2MjUgUTE1Ny42MjUsNzM2LjU2MjUgMTU3LjYyNSw3MzMuNzUgTDE1NS44NzUsNzMzLjc1IFogTTE1MS42MjUsNzM0LjQzNzUgTDE1Ni41NjI1LDczNC40Mzc1IEwxNTYuNTYyNSw3MzIuNjg3NSBMMTUxLjYyNSw3MzIuNjg3NSBMMTUxLjYyNSw3MzQuNDM3NSBaICIgZmlsbD0iIzAwMDAwMCIvPjx0ZXh0IGZpbGw9IiMwMDAwMDAiIGZvbnQtZmFtaWx5PSJzYW5zLXNlcmlmIiBmb250LXNpemU9IjE0IiBsZW5ndGhBZGp1c3Q9InNwYWNpbmciIHRleHRMZW5ndGg9IjU2IiB4PSIxNjgiIHk9Ijc0My43NDIyIj5Mb2FuU2xpcDwvdGV4dD48bGluZSBzdHlsZT0ic3Ryb2tlOiMxODE4MTg7c3Ryb2tlLXdpZHRoOjAuNTsiIHgxPSIxNDAiIHgyPSIyMjYiIHkxPSI3NTQiIHkyPSI3NTQiLz48bGluZSBzdHlsZT0ic3Ryb2tlOiMxODE4MTg7c3Ryb2tlLXdpZHRoOjAuNTsiIHgxPSIxNDAiIHgyPSIyMjYiIHkxPSI3NjIiIHkyPSI3NjIiLz48L2c+PCEtLWNsYXNzIExpc3RCb29rLS0+PGcgaWQ9ImVsZW1fTGlzdEJvb2siPjxyZWN0IGNvZGVMaW5lPSIxNSIgZmlsbD0iI0YxRjFGMSIgaGVpZ2h0PSI0OCIgaWQ9Ikxpc3RCb29rIiByeD0iMi41IiByeT0iMi41IiBzdHlsZT0ic3Ryb2tlOiMxODE4MTg7c3Ryb2tlLXdpZHRoOjAuNTsiIHdpZHRoPSI4OCIgeD0iNTEwIiB5PSI0OTMiLz48ZWxsaXBzZSBjeD0iNTI1IiBjeT0iNTA5IiBmaWxsPSIjQUREMUIyIiByeD0iMTEiIHJ5PSIxMSIgc3R5bGU9InN0cm9rZTojMTgxODE4O3N0cm9rZS13aWR0aDoxLjA7Ii8+PHBhdGggZD0iTTUyMi42MjUsNTEzLjI1IEw1MjIuNjI1LDUxNSBMNTI3LjU2MjUsNTE1IEw1MjcuNTYyNSw1MTMuMjUgTDUyMi42MjUsNTEzLjI1IFogTTUyMy4zMTI1LDUxMy45Mzc1IFE1MjMuMzEyNSw1MTMuOTM3NSA1MjMuMzEyNSw1MDQuNzUgTDUyMS41NjI1LDUwNC43NSBRNTIxLjU2MjUsNTA0Ljc1IDUyMS41NjI1LDUxMy45Mzc1IEw1MjMuMzEyNSw1MTMuOTM3NSBaIE01MjYuODc1LDUxMy45Mzc1IEw1MjguNjI1LDUxMy45Mzc1IFE1MjguNjI1LDUxMy45Mzc1IDUyOC42MjUsNTExLjEyNSBMNTI2Ljg3NSw1MTEuMTI1IFE1MjYuODc1LDUxMS4xMjUgNTI2Ljg3NSw1MTMuOTM3NSBaIE01MjYuODc1LDUwNC43NSBRNTI2Ljg3NSw1MDQuNzUgNTI2Ljg3NSw1MDcuNTYyNSBMNTI4LjYyNSw1MDcuNTYyNSBRNTI4LjYyNSw1MDcuNTYyNSA1MjguNjI1LDUwNC43NSBMNTI2Ljg3NSw1MDQuNzUgWiBNNTIyLjYyNSw1MDUuNDM3NSBMNTI3LjU2MjUsNTA1LjQzNzUgTDUyNy41NjI1LDUwMy42ODc1IEw1MjIuNjI1LDUwMy42ODc1IEw1MjIuNjI1LDUwNS40Mzc1IFogIiBmaWxsPSIjMDAwMDAwIi8+PHRleHQgZmlsbD0iIzAwMDAwMCIgZm9udC1mYW1pbHk9InNhbnMtc2VyaWYiIGZvbnQtc2l6ZT0iMTQiIGxlbmd0aEFkanVzdD0ic3BhY2luZyIgdGV4dExlbmd0aD0iNTYiIHg9IjUzOSIgeT0iNTE0Ljc0MjIiPkxpc3RCb29rPC90ZXh0PjxsaW5lIHN0eWxlPSJzdHJva2U6IzE4MTgxODtzdHJva2Utd2lkdGg6MC41OyIgeDE9IjUxMSIgeDI9IjU5NyIgeTE9IjUyNSIgeTI9IjUyNSIvPjxsaW5lIHN0eWxlPSJzdHJva2U6IzE4MTgxODtzdHJva2Utd2lkdGg6MC41OyIgeDE9IjUxMSIgeDI9IjU5NyIgeTE9IjUzMyIgeTI9IjUzMyIvPjwvZz48IS0tY2xhc3MgTm9kZUJvb2stLT48ZyBpZD0iZWxlbV9Ob2RlQm9vayI+PHJlY3QgY29kZUxpbmU9IjE2IiBmaWxsPSIjRjFGMUYxIiBoZWlnaHQ9IjQ4IiBpZD0iTm9kZUJvb2siIHJ4PSIyLjUiIHJ5PSIyLjUiIHN0eWxlPSJzdHJva2U6IzE4MTgxODtzdHJva2Utd2lkdGg6MC41OyIgd2lkdGg9Ijg4IiB4PSI1MTAiIHk9IjYwMSIvPjxlbGxpcHNlIGN4PSI1MjUiIGN5PSI2MTciIGZpbGw9IiNBREQxQjIiIHJ4PSIxMSIgcnk9IjExIiBzdHlsZT0ic3Ryb2tlOiMxODE4MTg7c3Ryb2tlLXdpZHRoOjEuMDsiLz48cGF0aCBkPSJNNTIyLjYyNSw2MjEuMjUgTDUyMi42MjUsNjIzIEw1MjcuNTYyNSw2MjMgTDUyNy41NjI1LDYyMS4yNSBMNTIyLjYyNSw2MjEuMjUgWiBNNTIzLjMxMjUsNjIxLjkzNzUgUTUyMy4zMTI1LDYyMS45Mzc1IDUyMy4zMTI1LDYxMi43NSBMNTIxLjU2MjUsNjEyLjc1IFE1MjEuNTYyNSw2MTIuNzUgNTIxLjU2MjUsNjIxLjkzNzUgTDUyMy4zMTI1LDYyMS45Mzc1IFogTTUyNi44NzUsNjIxLjkzNzUgTDUyOC42MjUsNjIxLjkzNzUgUTUyOC42MjUsNjIxLjkzNzUgNTI4LjYyNSw2MTkuMTI1IEw1MjYuODc1LDYxOS4xMjUgUTUyNi44NzUsNjE5LjEyNSA1MjYuODc1LDYyMS45Mzc1IFogTTUyNi44NzUsNjEyLjc1IFE1MjYuODc1LDYxMi43NSA1MjYuODc1LDYxNS41NjI1IEw1MjguNjI1LDYxNS41NjI1IFE1MjguNjI1LDYxNS41NjI1IDUyOC42MjUsNjEyLjc1IEw1MjYuODc1LDYxMi43NSBaIE01MjIuNjI1LDYxMy40Mzc1IEw1MjcuNTYyNSw2MTMuNDM3NSBMNTI3LjU2MjUsNjExLjY4NzUgTDUyMi42MjUsNjExLjY4NzUgTDUyMi42MjUsNjEzLjQzNzUgWiAiIGZpbGw9IiMwMDAwMDAiLz48dGV4dCBmaWxsPSIjMDAwMDAwIiBmb250LWZhbWlseT0ic2Fucy1zZXJpZiIgZm9udC1zaXplPSIxNCIgbGVuZ3RoQWRqdXN0PSJzcGFjaW5nIiB0ZXh0TGVuZ3RoPSI1NiIgeD0iNTM5IiB5PSI2MjIuNzQyMiI+Tm9kZUJvb2s8L3RleHQ+PGxpbmUgc3R5bGU9InN0cm9rZTojMTgxODE4O3N0cm9rZS13aWR0aDowLjU7IiB4MT0iNTExIiB4Mj0iNTk3IiB5MT0iNjMzIiB5Mj0iNjMzIi8+PGxpbmUgc3R5bGU9InN0cm9rZTojMTgxODE4O3N0cm9rZS13aWR0aDowLjU7IiB4MT0iNTExIiB4Mj0iNTk3IiB5MT0iNjQxIiB5Mj0iNjQxIi8+PC9nPjwhLS1jbGFzcyBMaXN0Qm9ycm93ZXItLT48ZyBpZD0iZWxlbV9MaXN0Qm9ycm93ZXIiPjxyZWN0IGNvZGVMaW5lPSIxNyIgZmlsbD0iI0YxRjFGMSIgaGVpZ2h0PSI0OCIgaWQ9Ikxpc3RCb3Jyb3dlciIgcng9IjIuNSIgcnk9IjIuNSIgc3R5bGU9InN0cm9rZTojMTgxODE4O3N0cm9rZS13aWR0aDowLjU7IiB3aWR0aD0iMTE3IiB4PSI2MzMuNSIgeT0iNDkzIi8+PGVsbGlwc2UgY3g9IjY0OC41IiBjeT0iNTA5IiBmaWxsPSIjQUREMUIyIiByeD0iMTEiIHJ5PSIxMSIgc3R5bGU9InN0cm9rZTojMTgxODE4O3N0cm9rZS13aWR0aDoxLjA7Ii8+PHBhdGggZD0iTTY0Ni4xMjUsNTEzLjI1IEw2NDYuMTI1LDUxNSBMNjUxLjA2MjUsNTE1IEw2NTEuMDYyNSw1MTMuMjUgTDY0Ni4xMjUsNTEzLjI1IFogTTY0Ni44MTI1LDUxMy45Mzc1IFE2NDYuODEyNSw1MTMuOTM3NSA2NDYuODEyNSw1MDQuNzUgTDY0NS4wNjI1LDUwNC43NSBRNjQ1LjA2MjUsNTA0Ljc1IDY0NS4wNjI1LDUxMy45Mzc1IEw2NDYuODEyNSw1MTMuOTM3NSBaIE02NTAuMzc1LDUxMy45Mzc1IEw2NTIuMTI1LDUxMy45Mzc1IFE2NTIuMTI1LDUxMy45Mzc1IDY1Mi4xMjUsNTExLjEyNSBMNjUwLjM3NSw1MTEuMTI1IFE2NTAuMzc1LDUxMS4xMjUgNjUwLjM3NSw1MTMuOTM3NSBaIE02NTAuMzc1LDUwNC43NSBRNjUwLjM3NSw1MDQuNzUgNjUwLjM3NSw1MDcuNTYyNSBMNjUyLjEyNSw1MDcuNTYyNSBRNjUyLjEyNSw1MDcuNTYyNSA2NTIuMTI1LDUwNC43NSBMNjUwLjM3NSw1MDQuNzUgWiBNNjQ2LjEyNSw1MDUuNDM3NSBMNjUxLjA2MjUsNTA1LjQzNzUgTDY1MS4wNjI1LDUwMy42ODc1IEw2NDYuMTI1LDUwMy42ODc1IEw2NDYuMTI1LDUwNS40Mzc1IFogIiBmaWxsPSIjMDAwMDAwIi8+PHRleHQgZmlsbD0iIzAwMDAwMCIgZm9udC1mYW1pbHk9InNhbnMtc2VyaWYiIGZvbnQtc2l6ZT0iMTQiIGxlbmd0aEFkanVzdD0ic3BhY2luZyIgdGV4dExlbmd0aD0iODUiIHg9IjY2Mi41IiB5PSI1MTQuNzQyMiI+TGlzdEJvcnJvd2VyPC90ZXh0PjxsaW5lIHN0eWxlPSJzdHJva2U6IzE4MTgxODtzdHJva2Utd2lkdGg6MC41OyIgeDE9IjYzNC41IiB4Mj0iNzQ5LjUiIHkxPSI1MjUiIHkyPSI1MjUiLz48bGluZSBzdHlsZT0ic3Ryb2tlOiMxODE4MTg7c3Ryb2tlLXdpZHRoOjAuNTsiIHgxPSI2MzQuNSIgeDI9Ijc0OS41IiB5MT0iNTMzIiB5Mj0iNTMzIi8+PC9nPjwhLS1jbGFzcyBOb2RlQm9ycm93ZXItLT48ZyBpZD0iZWxlbV9Ob2RlQm9ycm93ZXIiPjxyZWN0IGNvZGVMaW5lPSIxOCIgZmlsbD0iI0YxRjFGMSIgaGVpZ2h0PSI0OCIgaWQ9Ik5vZGVCb3Jyb3dlciIgcng9IjIuNSIgcnk9IjIuNSIgc3R5bGU9InN0cm9rZTojMTgxODE4O3N0cm9rZS13aWR0aDowLjU7IiB3aWR0aD0iMTE3IiB4PSI2MzMuNSIgeT0iNjAxIi8+PGVsbGlwc2UgY3g9IjY0OC41IiBjeT0iNjE3IiBmaWxsPSIjQUREMUIyIiByeD0iMTEiIHJ5PSIxMSIgc3R5bGU9InN0cm9rZTojMTgxODE4O3N0cm9rZS13aWR0aDoxLjA7Ii8+PHBhdGggZD0iTTY0Ni4xMjUsNjIxLjI1IEw2NDYuMTI1LDYyMyBMNjUxLjA2MjUsNjIzIEw2NTEuMDYyNSw2MjEuMjUgTDY0Ni4xMjUsNjIxLjI1IFogTTY0Ni44MTI1LDYyMS45Mzc1IFE2NDYuODEyNSw2MjEuOTM3NSA2NDYuODEyNSw2MTIuNzUgTDY0NS4wNjI1LDYxMi43NSBRNjQ1LjA2MjUsNjEyLjc1IDY0NS4wNjI1LDYyMS45Mzc1IEw2NDYuODEyNSw2MjEuOTM3NSBaIE02NTAuMzc1LDYyMS45Mzc1IEw2NTIuMTI1LDYyMS45Mzc1IFE2NTIuMTI1LDYyMS45Mzc1IDY1Mi4xMjUsNjE5LjEyNSBMNjUwLjM3NSw2MTkuMTI1IFE2NTAuMzc1LDYxOS4xMjUgNjUwLjM3NSw2MjEuOTM3NSBaIE02NTAuMzc1LDYxMi43NSBRNjUwLjM3NSw2MTIuNzUgNjUwLjM3NSw2MTUuNTYyNSBMNjUyLjEyNSw2MTUuNTYyNSBRNjUyLjEyNSw2MTUuNTYyNSA2NTIuMTI1LDYxMi43NSBMNjUwLjM3NSw2MTIuNzUgWiBNNjQ2LjEyNSw2MTMuNDM3NSBMNjUxLjA2MjUsNjEzLjQzNzUgTDY1MS4wNjI1LDYxMS42ODc1IEw2NDYuMTI1LDYxMS42ODc1IEw2NDYuMTI1LDYxMy40Mzc1IFogIiBmaWxsPSIjMDAwMDAwIi8+PHRleHQgZmlsbD0iIzAwMDAwMCIgZm9udC1mYW1pbHk9InNhbnMtc2VyaWYiIGZvbnQtc2l6ZT0iMTQiIGxlbmd0aEFkanVzdD0ic3BhY2luZyIgdGV4dExlbmd0aD0iODUiIHg9IjY2Mi41IiB5PSI2MjIuNzQyMiI+Tm9kZUJvcnJvd2VyPC90ZXh0PjxsaW5lIHN0eWxlPSJzdHJva2U6IzE4MTgxODtzdHJva2Utd2lkdGg6MC41OyIgeDE9IjYzNC41IiB4Mj0iNzQ5LjUiIHkxPSI2MzMiIHkyPSI2MzMiLz48bGluZSBzdHlsZT0ic3Ryb2tlOiMxODE4MTg7c3Ryb2tlLXdpZHRoOjAuNTsiIHgxPSI2MzQuNSIgeDI9Ijc0OS41IiB5MT0iNjQxIiB5Mj0iNjQxIi8+PC9nPjwhLS1jbGFzcyBMaXN0TG9hblNsaXAtLT48ZyBpZD0iZWxlbV9MaXN0TG9hblNsaXAiPjxyZWN0IGNvZGVMaW5lPSIxOSIgZmlsbD0iI0YxRjFGMSIgaGVpZ2h0PSI0OCIgaWQ9Ikxpc3RMb2FuU2xpcCIgcng9IjIuNSIgcnk9IjIuNSIgc3R5bGU9InN0cm9rZTojMTgxODE4O3N0cm9rZS13aWR0aDowLjU7IiB3aWR0aD0iMTE2IiB4PSIzNTkiIHk9IjQ5MyIvPjxlbGxpcHNlIGN4PSIzNzQiIGN5PSI1MDkiIGZpbGw9IiNBREQxQjIiIHJ4PSIxMSIgcnk9IjExIiBzdHlsZT0ic3Ryb2tlOiMxODE4MTg7c3Ryb2tlLXdpZHRoOjEuMDsiLz48cGF0aCBkPSJNMzcxLjYyNSw1MTMuMjUgTDM3MS42MjUsNTE1IEwzNzYuNTYyNSw1MTUgTDM3Ni41NjI1LDUxMy4yNSBMMzcxLjYyNSw1MTMuMjUgWiBNMzcyLjMxMjUsNTEzLjkzNzUgUTM3Mi4zMTI1LDUxMy45Mzc1IDM3Mi4zMTI1LDUwNC43NSBMMzcwLjU2MjUsNTA0Ljc1IFEzNzAuNTYyNSw1MDQuNzUgMzcwLjU2MjUsNTEzLjkzNzUgTDM3Mi4zMTI1LDUxMy45Mzc1IFogTTM3NS44NzUsNTEzLjkzNzUgTDM3Ny42MjUsNTEzLjkzNzUgUTM3Ny42MjUsNTEzLjkzNzUgMzc3LjYyNSw1MTEuMTI1IEwzNzUuODc1LDUxMS4xMjUgUTM3NS44NzUsNTExLjEyNSAzNzUuODc1LDUxMy45Mzc1IFogTTM3NS44NzUsNTA0Ljc1IFEzNzUuODc1LDUwNC43NSAzNzUuODc1LDUwNy41NjI1IEwzNzcuNjI1LDUwNy41NjI1IFEzNzcuNjI1LDUwNy41NjI1IDM3Ny42MjUsNTA0Ljc1IEwzNzUuODc1LDUwNC43NSBaIE0zNzEuNjI1LDUwNS40Mzc1IEwzNzYuNTYyNSw1MDUuNDM3NSBMMzc2LjU2MjUsNTAzLjY4NzUgTDM3MS42MjUsNTAzLjY4NzUgTDM3MS42MjUsNTA1LjQzNzUgWiAiIGZpbGw9IiMwMDAwMDAiLz48dGV4dCBmaWxsPSIjMDAwMDAwIiBmb250LWZhbWlseT0ic2Fucy1zZXJpZiIgZm9udC1zaXplPSIxNCIgbGVuZ3RoQWRqdXN0PSJzcGFjaW5nIiB0ZXh0TGVuZ3RoPSI4NCIgeD0iMzg4IiB5PSI1MTQuNzQyMiI+TGlzdExvYW5TbGlwPC90ZXh0PjxsaW5lIHN0eWxlPSJzdHJva2U6IzE4MTgxODtzdHJva2Utd2lkdGg6MC41OyIgeDE9IjM2MCIgeDI9IjQ3NCIgeTE9IjUyNSIgeTI9IjUyNSIvPjxsaW5lIHN0eWxlPSJzdHJva2U6IzE4MTgxODtzdHJva2Utd2lkdGg6MC41OyIgeDE9IjM2MCIgeDI9IjQ3NCIgeTE9IjUzMyIgeTI9IjUzMyIvPjwvZz48IS0tY2xhc3MgTm9kZUxvYW5TbGlwLS0+PGcgaWQ9ImVsZW1fTm9kZUxvYW5TbGlwIj48cmVjdCBjb2RlTGluZT0iMjAiIGZpbGw9IiNGMUYxRjEiIGhlaWdodD0iNDgiIGlkPSJOb2RlTG9hblNsaXAiIHJ4PSIyLjUiIHJ5PSIyLjUiIHN0eWxlPSJzdHJva2U6IzE4MTgxODtzdHJva2Utd2lkdGg6MC41OyIgd2lkdGg9IjExNiIgeD0iMzU5IiB5PSI2MDEiLz48ZWxsaXBzZSBjeD0iMzc0IiBjeT0iNjE3IiBmaWxsPSIjQUREMUIyIiByeD0iMTEiIHJ5PSIxMSIgc3R5bGU9InN0cm9rZTojMTgxODE4O3N0cm9rZS13aWR0aDoxLjA7Ii8+PHBhdGggZD0iTTM3MS42MjUsNjIxLjI1IEwzNzEuNjI1LDYyMyBMMzc2LjU2MjUsNjIzIEwzNzYuNTYyNSw2MjEuMjUgTDM3MS42MjUsNjIxLjI1IFogTTM3Mi4zMTI1LDYyMS45Mzc1IFEzNzIuMzEyNSw2MjEuOTM3NSAzNzIuMzEyNSw2MTIuNzUgTDM3MC41NjI1LDYxMi43NSBRMzcwLjU2MjUsNjEyLjc1IDM3MC41NjI1LDYyMS45Mzc1IEwzNzIuMzEyNSw2MjEuOTM3NSBaIE0zNzUuODc1LDYyMS45Mzc1IEwzNzcuNjI1LDYyMS45Mzc1IFEzNzcuNjI1LDYyMS45Mzc1IDM3Ny42MjUsNjE5LjEyNSBMMzc1Ljg3NSw2MTkuMTI1IFEzNzUuODc1LDYxOS4xMjUgMzc1Ljg3NSw2MjEuOTM3NSBaIE0zNzUuODc1LDYxMi43NSBRMzc1Ljg3NSw2MTIuNzUgMzc1Ljg3NSw2MTUuNTYyNSBMMzc3LjYyNSw2MTUuNTYyNSBRMzc3LjYyNSw2MTUuNTYyNSAzNzcuNjI1LDYxMi43NSBMMzc1Ljg3NSw2MTIuNzUgWiBNMzcxLjYyNSw2MTMuNDM3NSBMMzc2LjU2MjUsNjEzLjQzNzUgTDM3Ni41NjI1LDYxMS42ODc1IEwzNzEuNjI1LDYxMS42ODc1IEwzNzEuNjI1LDYxMy40Mzc1IFogIiBmaWxsPSIjMDAwMDAwIi8+PHRleHQgZmlsbD0iIzAwMDAwMCIgZm9udC1mYW1pbHk9InNhbnMtc2VyaWYiIGZvbnQtc2l6ZT0iMTQiIGxlbmd0aEFkanVzdD0ic3BhY2luZyIgdGV4dExlbmd0aD0iODQiIHg9IjM4OCIgeT0iNjIyLjc0MjIiPk5vZGVMb2FuU2xpcDwvdGV4dD48bGluZSBzdHlsZT0ic3Ryb2tlOiMxODE4MTg7c3Ryb2tlLXdpZHRoOjAuNTsiIHgxPSIzNjAiIHgyPSI0NzQiIHkxPSI2MzMiIHkyPSI2MzMiLz48bGluZSBzdHlsZT0ic3Ryb2tlOiMxODE4MTg7c3Ryb2tlLXdpZHRoOjAuNTsiIHgxPSIzNjAiIHgyPSI0NzQiIHkxPSI2NDEiIHkyPSI2NDEiLz48L2c+PCEtLWNsYXNzIEJvb2tNYW5hZ2VtZW50LS0+PGcgaWQ9ImVsZW1fQm9va01hbmFnZW1lbnQiPjxyZWN0IGNvZGVMaW5lPSIyNCIgZmlsbD0iI0YxRjFGMSIgaGVpZ2h0PSI0OCIgaWQ9IkJvb2tNYW5hZ2VtZW50IiByeD0iMi41IiByeT0iMi41IiBzdHlsZT0ic3Ryb2tlOiMxODE4MTg7c3Ryb2tlLXdpZHRoOjAuNTsiIHdpZHRoPSIxMzEiIHg9IjUyNC41IiB5PSIxMzAiLz48ZWxsaXBzZSBjeD0iNTM5LjUiIGN5PSIxNDYiIGZpbGw9IiNBREQxQjIiIHJ4PSIxMSIgcnk9IjExIiBzdHlsZT0ic3Ryb2tlOiMxODE4MTg7c3Ryb2tlLXdpZHRoOjEuMDsiLz48cGF0aCBkPSJNNTM3LjEyNSwxNTAuMjUgTDUzNy4xMjUsMTUyIEw1NDIuMDYyNSwxNTIgTDU0Mi4wNjI1LDE1MC4yNSBMNTM3LjEyNSwxNTAuMjUgWiBNNTM3LjgxMjUsMTUwLjkzNzUgUTUzNy44MTI1LDE1MC45Mzc1IDUzNy44MTI1LDE0MS43NSBMNTM2LjA2MjUsMTQxLjc1IFE1MzYuMDYyNSwxNDEuNzUgNTM2LjA2MjUsMTUwLjkzNzUgTDUzNy44MTI1LDE1MC45Mzc1IFogTTU0MS4zNzUsMTUwLjkzNzUgTDU0My4xMjUsMTUwLjkzNzUgUTU0My4xMjUsMTUwLjkzNzUgNTQzLjEyNSwxNDguMTI1IEw1NDEuMzc1LDE0OC4xMjUgUTU0MS4zNzUsMTQ4LjEyNSA1NDEuMzc1LDE1MC45Mzc1IFogTTU0MS4zNzUsMTQxLjc1IFE1NDEuMzc1LDE0MS43NSA1NDEuMzc1LDE0NC41NjI1IEw1NDMuMTI1LDE0NC41NjI1IFE1NDMuMTI1LDE0NC41NjI1IDU0My4xMjUsMTQxLjc1IEw1NDEuMzc1LDE0MS43NSBaIE01MzcuMTI1LDE0Mi40Mzc1IEw1NDIuMDYyNSwxNDIuNDM3NSBMNTQyLjA2MjUsMTQwLjY4NzUgTDUzNy4xMjUsMTQwLjY4NzUgTDUzNy4xMjUsMTQyLjQzNzUgWiAiIGZpbGw9IiMwMDAwMDAiLz48dGV4dCBmaWxsPSIjMDAwMDAwIiBmb250LWZhbWlseT0ic2Fucy1zZXJpZiIgZm9udC1zaXplPSIxNCIgbGVuZ3RoQWRqdXN0PSJzcGFjaW5nIiB0ZXh0TGVuZ3RoPSI5OSIgeD0iNTUzLjUiIHk9IjE1MS43NDIyIj5Cb29rTWFuYWdlbWVudDwvdGV4dD48bGluZSBzdHlsZT0ic3Ryb2tlOiMxODE4MTg7c3Ryb2tlLXdpZHRoOjAuNTsiIHgxPSI1MjUuNSIgeDI9IjY1NC41IiB5MT0iMTYyIiB5Mj0iMTYyIi8+PGxpbmUgc3R5bGU9InN0cm9rZTojMTgxODE4O3N0cm9rZS13aWR0aDowLjU7IiB4MT0iNTI1LjUiIHgyPSI2NTQuNSIgeTE9IjE3MCIgeTI9IjE3MCIvPjwvZz48IS0tY2xhc3MgQm9ycm93ZXJNYW5hZ2VtZW50LS0+PGcgaWQ9ImVsZW1fQm9ycm93ZXJNYW5hZ2VtZW50Ij48cmVjdCBjb2RlTGluZT0iMjUiIGZpbGw9IiNGMUYxRjEiIGhlaWdodD0iNDgiIGlkPSJCb3Jyb3dlck1hbmFnZW1lbnQiIHJ4PSIyLjUiIHJ5PSIyLjUiIHN0eWxlPSJzdHJva2U6IzE4MTgxODtzdHJva2Utd2lkdGg6MC41OyIgd2lkdGg9IjE2MCIgeD0iMzI5IiB5PSIxMzAiLz48ZWxsaXBzZSBjeD0iMzQ0IiBjeT0iMTQ2IiBmaWxsPSIjQUREMUIyIiByeD0iMTEiIHJ5PSIxMSIgc3R5bGU9InN0cm9rZTojMTgxODE4O3N0cm9rZS13aWR0aDoxLjA7Ii8+PHBhdGggZD0iTTM0MS42MjUsMTUwLjI1IEwzNDEuNjI1LDE1MiBMMzQ2LjU2MjUsMTUyIEwzNDYuNTYyNSwxNTAuMjUgTDM0MS42MjUsMTUwLjI1IFogTTM0Mi4zMTI1LDE1MC45Mzc1IFEzNDIuMzEyNSwxNTAuOTM3NSAzNDIuMzEyNSwxNDEuNzUgTDM0MC41NjI1LDE0MS43NSBRMzQwLjU2MjUsMTQxLjc1IDM0MC41NjI1LDE1MC45Mzc1IEwzNDIuMzEyNSwxNTAuOTM3NSBaIE0zNDUuODc1LDE1MC45Mzc1IEwzNDcuNjI1LDE1MC45Mzc1IFEzNDcuNjI1LDE1MC45Mzc1IDM0Ny42MjUsMTQ4LjEyNSBMMzQ1Ljg3NSwxNDguMTI1IFEzNDUuODc1LDE0OC4xMjUgMzQ1Ljg3NSwxNTAuOTM3NSBaIE0zNDUuODc1LDE0MS43NSBRMzQ1Ljg3NSwxNDEuNzUgMzQ1Ljg3NSwxNDQuNTYyNSBMMzQ3LjYyNSwxNDQuNTYyNSBRMzQ3LjYyNSwxNDQuNTYyNSAzNDcuNjI1LDE0MS43NSBMMzQ1Ljg3NSwxNDEuNzUgWiBNMzQxLjYyNSwxNDIuNDM3NSBMMzQ2LjU2MjUsMTQyLjQzNzUgTDM0Ni41NjI1LDE0MC42ODc1IEwzNDEuNjI1LDE0MC42ODc1IEwzNDEuNjI1LDE0Mi40Mzc1IFogIiBmaWxsPSIjMDAwMDAwIi8+PHRleHQgZmlsbD0iIzAwMDAwMCIgZm9udC1mYW1pbHk9InNhbnMtc2VyaWYiIGZvbnQtc2l6ZT0iMTQiIGxlbmd0aEFkanVzdD0ic3BhY2luZyIgdGV4dExlbmd0aD0iMTI4IiB4PSIzNTgiIHk9IjE1MS43NDIyIj5Cb3Jyb3dlck1hbmFnZW1lbnQ8L3RleHQ+PGxpbmUgc3R5bGU9InN0cm9rZTojMTgxODE4O3N0cm9rZS13aWR0aDowLjU7IiB4MT0iMzMwIiB4Mj0iNDg4IiB5MT0iMTYyIiB5Mj0iMTYyIi8+PGxpbmUgc3R5bGU9InN0cm9rZTojMTgxODE4O3N0cm9rZS13aWR0aDowLjU7IiB4MT0iMzMwIiB4Mj0iNDg4IiB5MT0iMTcwIiB5Mj0iMTcwIi8+PC9nPjwhLS1jbGFzcyBMb2FuU2xpcE1hbmFnZW1lbnQtLT48ZyBpZD0iZWxlbV9Mb2FuU2xpcE1hbmFnZW1lbnQiPjxyZWN0IGNvZGVMaW5lPSIyNiIgZmlsbD0iI0YxRjFGMSIgaGVpZ2h0PSI0OCIgaWQ9IkxvYW5TbGlwTWFuYWdlbWVudCIgcng9IjIuNSIgcnk9IjIuNSIgc3R5bGU9InN0cm9rZTojMTgxODE4O3N0cm9rZS13aWR0aDowLjU7IiB3aWR0aD0iMTU5IiB4PSI3ODYuNSIgeT0iMTMwIi8+PGVsbGlwc2UgY3g9IjgwMS41IiBjeT0iMTQ2IiBmaWxsPSIjQUREMUIyIiByeD0iMTEiIHJ5PSIxMSIgc3R5bGU9InN0cm9rZTojMTgxODE4O3N0cm9rZS13aWR0aDoxLjA7Ii8+PHBhdGggZD0iTTc5OS4xMjUsMTUwLjI1IEw3OTkuMTI1LDE1MiBMODA0LjA2MjUsMTUyIEw4MDQuMDYyNSwxNTAuMjUgTDc5OS4xMjUsMTUwLjI1IFogTTc5OS44MTI1LDE1MC45Mzc1IFE3OTkuODEyNSwxNTAuOTM3NSA3OTkuODEyNSwxNDEuNzUgTDc5OC4wNjI1LDE0MS43NSBRNzk4LjA2MjUsMTQxLjc1IDc5OC4wNjI1LDE1MC45Mzc1IEw3OTkuODEyNSwxNTAuOTM3NSBaIE04MDMuMzc1LDE1MC45Mzc1IEw4MDUuMTI1LDE1MC45Mzc1IFE4MDUuMTI1LDE1MC45Mzc1IDgwNS4xMjUsMTQ4LjEyNSBMODAzLjM3NSwxNDguMTI1IFE4MDMuMzc1LDE0OC4xMjUgODAzLjM3NSwxNTAuOTM3NSBaIE04MDMuMzc1LDE0MS43NSBRODAzLjM3NSwxNDEuNzUgODAzLjM3NSwxNDQuNTYyNSBMODA1LjEyNSwxNDQuNTYyNSBRODA1LjEyNSwxNDQuNTYyNSA4MDUuMTI1LDE0MS43NSBMODAzLjM3NSwxNDEuNzUgWiBNNzk5LjEyNSwxNDIuNDM3NSBMODA0LjA2MjUsMTQyLjQzNzUgTDgwNC4wNjI1LDE0MC42ODc1IEw3OTkuMTI1LDE0MC42ODc1IEw3OTkuMTI1LDE0Mi40Mzc1IFogIiBmaWxsPSIjMDAwMDAwIi8+PHRleHQgZmlsbD0iIzAwMDAwMCIgZm9udC1mYW1pbHk9InNhbnMtc2VyaWYiIGZvbnQtc2l6ZT0iMTQiIGxlbmd0aEFkanVzdD0ic3BhY2luZyIgdGV4dExlbmd0aD0iMTI3IiB4PSI4MTUuNSIgeT0iMTUxLjc0MjIiPkxvYW5TbGlwTWFuYWdlbWVudDwvdGV4dD48bGluZSBzdHlsZT0ic3Ryb2tlOiMxODE4MTg7c3Ryb2tlLXdpZHRoOjAuNTsiIHgxPSI3ODcuNSIgeDI9Ijk0NC41IiB5MT0iMTYyIiB5Mj0iMTYyIi8+PGxpbmUgc3R5bGU9InN0cm9rZTojMTgxODE4O3N0cm9rZS13aWR0aDowLjU7IiB4MT0iNzg3LjUiIHgyPSI5NDQuNSIgeTE9IjE3MCIgeTI9IjE3MCIvPjwvZz48IS0tY2xhc3MgTWVudS0tPjxnIGlkPSJlbGVtX01lbnUiPjxyZWN0IGNvZGVMaW5lPSIyNyIgZmlsbD0iI0YxRjFGMSIgaGVpZ2h0PSI0OCIgaWQ9Ik1lbnUiIHJ4PSIyLjUiIHJ5PSIyLjUiIHN0eWxlPSJzdHJva2U6IzE4MTgxODtzdHJva2Utd2lkdGg6MC41OyIgd2lkdGg9IjYwIiB4PSI2OTEiIHk9IjEzMCIvPjxlbGxpcHNlIGN4PSI3MDYiIGN5PSIxNDYiIGZpbGw9IiNBREQxQjIiIHJ4PSIxMSIgcnk9IjExIiBzdHlsZT0ic3Ryb2tlOiMxODE4MTg7c3Ryb2tlLXdpZHRoOjEuMDsiLz48cGF0aCBkPSJNNzAzLjYyNSwxNTAuMjUgTDcwMy42MjUsMTUyIEw3MDguNTYyNSwxNTIgTDcwOC41NjI1LDE1MC4yNSBMNzAzLjYyNSwxNTAuMjUgWiBNNzA0LjMxMjUsMTUwLjkzNzUgUTcwNC4zMTI1LDE1MC45Mzc1IDcwNC4zMTI1LDE0MS43NSBMNzAyLjU2MjUsMTQxLjc1IFE3MDIuNTYyNSwxNDEuNzUgNzAyLjU2MjUsMTUwLjkzNzUgTDcwNC4zMTI1LDE1MC45Mzc1IFogTTcwNy44NzUsMTUwLjkzNzUgTDcwOS42MjUsMTUwLjkzNzUgUTcwOS42MjUsMTUwLjkzNzUgNzA5LjYyNSwxNDguMTI1IEw3MDcuODc1LDE0OC4xMjUgUTcwNy44NzUsMTQ4LjEyNSA3MDcuODc1LDE1MC45Mzc1IFogTTcwNy44NzUsMTQxLjc1IFE3MDcuODc1LDE0MS43NSA3MDcuODc1LDE0NC41NjI1IEw3MDkuNjI1LDE0NC41NjI1IFE3MDkuNjI1LDE0NC41NjI1IDcwOS42MjUsMTQxLjc1IEw3MDcuODc1LDE0MS43NSBaIE03MDMuNjI1LDE0Mi40Mzc1IEw3MDguNTYyNSwxNDIuNDM3NSBMNzA4LjU2MjUsMTQwLjY4NzUgTDcwMy42MjUsMTQwLjY4NzUgTDcwMy42MjUsMTQyLjQzNzUgWiAiIGZpbGw9IiMwMDAwMDAiLz48dGV4dCBmaWxsPSIjMDAwMDAwIiBmb250LWZhbWlseT0ic2Fucy1zZXJpZiIgZm9udC1zaXplPSIxNCIgbGVuZ3RoQWRqdXN0PSJzcGFjaW5nIiB0ZXh0TGVuZ3RoPSIyOCIgeD0iNzIwIiB5PSIxNTEuNzQyMiI+TWVudTwvdGV4dD48bGluZSBzdHlsZT0ic3Ryb2tlOiMxODE4MTg7c3Ryb2tlLXdpZHRoOjAuNTsiIHgxPSI2OTIiIHgyPSI3NTAiIHkxPSIxNjIiIHkyPSIxNjIiLz48bGluZSBzdHlsZT0ic3Ryb2tlOiMxODE4MTg7c3Ryb2tlLXdpZHRoOjAuNTsiIHgxPSI2OTIiIHgyPSI3NTAiIHkxPSIxNzAiIHkyPSIxNzAiLz48L2c+PCEtLWNsYXNzIEJvb2tMb2dpYy0tPjxnIGlkPSJlbGVtX0Jvb2tMb2dpYyI+PHJlY3QgY29kZUxpbmU9IjMxIiBmaWxsPSIjRjFGMUYxIiBoZWlnaHQ9IjQ4IiBpZD0iQm9va0xvZ2ljIiByeD0iMi41IiByeT0iMi41IiBzdHlsZT0ic3Ryb2tlOiMxODE4MTg7c3Ryb2tlLXdpZHRoOjAuNTsiIHdpZHRoPSI5NSIgeD0iNzc5LjUiIHk9IjI1MSIvPjxlbGxpcHNlIGN4PSI3OTQuNSIgY3k9IjI2NyIgZmlsbD0iI0FERDFCMiIgcng9IjExIiByeT0iMTEiIHN0eWxlPSJzdHJva2U6IzE4MTgxODtzdHJva2Utd2lkdGg6MS4wOyIvPjxwYXRoIGQ9Ik03OTIuMTI1LDI3MS4yNSBMNzkyLjEyNSwyNzMgTDc5Ny4wNjI1LDI3MyBMNzk3LjA2MjUsMjcxLjI1IEw3OTIuMTI1LDI3MS4yNSBaIE03OTIuODEyNSwyNzEuOTM3NSBRNzkyLjgxMjUsMjcxLjkzNzUgNzkyLjgxMjUsMjYyLjc1IEw3OTEuMDYyNSwyNjIuNzUgUTc5MS4wNjI1LDI2Mi43NSA3OTEuMDYyNSwyNzEuOTM3NSBMNzkyLjgxMjUsMjcxLjkzNzUgWiBNNzk2LjM3NSwyNzEuOTM3NSBMNzk4LjEyNSwyNzEuOTM3NSBRNzk4LjEyNSwyNzEuOTM3NSA3OTguMTI1LDI2OS4xMjUgTDc5Ni4zNzUsMjY5LjEyNSBRNzk2LjM3NSwyNjkuMTI1IDc5Ni4zNzUsMjcxLjkzNzUgWiBNNzk2LjM3NSwyNjIuNzUgUTc5Ni4zNzUsMjYyLjc1IDc5Ni4zNzUsMjY1LjU2MjUgTDc5OC4xMjUsMjY1LjU2MjUgUTc5OC4xMjUsMjY1LjU2MjUgNzk4LjEyNSwyNjIuNzUgTDc5Ni4zNzUsMjYyLjc1IFogTTc5Mi4xMjUsMjYzLjQzNzUgTDc5Ny4wNjI1LDI2My40Mzc1IEw3OTcuMDYyNSwyNjEuNjg3NSBMNzkyLjEyNSwyNjEuNjg3NSBMNzkyLjEyNSwyNjMuNDM3NSBaICIgZmlsbD0iIzAwMDAwMCIvPjx0ZXh0IGZpbGw9IiMwMDAwMDAiIGZvbnQtZmFtaWx5PSJzYW5zLXNlcmlmIiBmb250LXNpemU9IjE0IiBsZW5ndGhBZGp1c3Q9InNwYWNpbmciIHRleHRMZW5ndGg9IjYzIiB4PSI4MDguNSIgeT0iMjcyLjc0MjIiPkJvb2tMb2dpYzwvdGV4dD48bGluZSBzdHlsZT0ic3Ryb2tlOiMxODE4MTg7c3Ryb2tlLXdpZHRoOjAuNTsiIHgxPSI3ODAuNSIgeDI9Ijg3My41IiB5MT0iMjgzIiB5Mj0iMjgzIi8+PGxpbmUgc3R5bGU9InN0cm9rZTojMTgxODE4O3N0cm9rZS13aWR0aDowLjU7IiB4MT0iNzgwLjUiIHgyPSI4NzMuNSIgeTE9IjI5MSIgeTI9IjI5MSIvPjwvZz48IS0tY2xhc3MgQm9ycm93ZXJMb2dpYy0tPjxnIGlkPSJlbGVtX0JvcnJvd2VyTG9naWMiPjxyZWN0IGNvZGVMaW5lPSIzMiIgZmlsbD0iI0YxRjFGMSIgaGVpZ2h0PSI0OCIgaWQ9IkJvcnJvd2VyTG9naWMiIHJ4PSIyLjUiIHJ5PSIyLjUiIHN0eWxlPSJzdHJva2U6IzE4MTgxODtzdHJva2Utd2lkdGg6MC41OyIgd2lkdGg9IjEyNCIgeD0iNDYyIiB5PSIyNTEiLz48ZWxsaXBzZSBjeD0iNDc3IiBjeT0iMjY3IiBmaWxsPSIjQUREMUIyIiByeD0iMTEiIHJ5PSIxMSIgc3R5bGU9InN0cm9rZTojMTgxODE4O3N0cm9rZS13aWR0aDoxLjA7Ii8+PHBhdGggZD0iTTQ3NC42MjUsMjcxLjI1IEw0NzQuNjI1LDI3MyBMNDc5LjU2MjUsMjczIEw0NzkuNTYyNSwyNzEuMjUgTDQ3NC42MjUsMjcxLjI1IFogTTQ3NS4zMTI1LDI3MS45Mzc1IFE0NzUuMzEyNSwyNzEuOTM3NSA0NzUuMzEyNSwyNjIuNzUgTDQ3My41NjI1LDI2Mi43NSBRNDczLjU2MjUsMjYyLjc1IDQ3My41NjI1LDI3MS45Mzc1IEw0NzUuMzEyNSwyNzEuOTM3NSBaIE00NzguODc1LDI3MS45Mzc1IEw0ODAuNjI1LDI3MS45Mzc1IFE0ODAuNjI1LDI3MS45Mzc1IDQ4MC42MjUsMjY5LjEyNSBMNDc4Ljg3NSwyNjkuMTI1IFE0NzguODc1LDI2OS4xMjUgNDc4Ljg3NSwyNzEuOTM3NSBaIE00NzguODc1LDI2Mi43NSBRNDc4Ljg3NSwyNjIuNzUgNDc4Ljg3NSwyNjUuNTYyNSBMNDgwLjYyNSwyNjUuNTYyNSBRNDgwLjYyNSwyNjUuNTYyNSA0ODAuNjI1LDI2Mi43NSBMNDc4Ljg3NSwyNjIuNzUgWiBNNDc0LjYyNSwyNjMuNDM3NSBMNDc5LjU2MjUsMjYzLjQzNzUgTDQ3OS41NjI1LDI2MS42ODc1IEw0NzQuNjI1LDI2MS42ODc1IEw0NzQuNjI1LDI2My40Mzc1IFogIiBmaWxsPSIjMDAwMDAwIi8+PHRleHQgZmlsbD0iIzAwMDAwMCIgZm9udC1mYW1pbHk9InNhbnMtc2VyaWYiIGZvbnQtc2l6ZT0iMTQiIGxlbmd0aEFkanVzdD0ic3BhY2luZyIgdGV4dExlbmd0aD0iOTIiIHg9IjQ5MSIgeT0iMjcyLjc0MjIiPkJvcnJvd2VyTG9naWM8L3RleHQ+PGxpbmUgc3R5bGU9InN0cm9rZTojMTgxODE4O3N0cm9rZS13aWR0aDowLjU7IiB4MT0iNDYzIiB4Mj0iNTg1IiB5MT0iMjgzIiB5Mj0iMjgzIi8+PGxpbmUgc3R5bGU9InN0cm9rZTojMTgxODE4O3N0cm9rZS13aWR0aDowLjU7IiB4MT0iNDYzIiB4Mj0iNTg1IiB5MT0iMjkxIiB5Mj0iMjkxIi8+PC9nPjwhLS1jbGFzcyBMb2FuU2xpcExvZ2ljLS0+PGcgaWQ9ImVsZW1fTG9hblNsaXBMb2dpYyI+PHJlY3QgY29kZUxpbmU9IjMzIiBmaWxsPSIjRjFGMUYxIiBoZWlnaHQ9IjQ4IiBpZD0iTG9hblNsaXBMb2dpYyIgcng9IjIuNSIgcnk9IjIuNSIgc3R5bGU9InN0cm9rZTojMTgxODE4O3N0cm9rZS13aWR0aDowLjU7IiB3aWR0aD0iMTIzIiB4PSI2MjEuNSIgeT0iMjUxIi8+PGVsbGlwc2UgY3g9IjYzNi41IiBjeT0iMjY3IiBmaWxsPSIjQUREMUIyIiByeD0iMTEiIHJ5PSIxMSIgc3R5bGU9InN0cm9rZTojMTgxODE4O3N0cm9rZS13aWR0aDoxLjA7Ii8+PHBhdGggZD0iTTYzNC4xMjUsMjcxLjI1IEw2MzQuMTI1LDI3MyBMNjM5LjA2MjUsMjczIEw2MzkuMDYyNSwyNzEuMjUgTDYzNC4xMjUsMjcxLjI1IFogTTYzNC44MTI1LDI3MS45Mzc1IFE2MzQuODEyNSwyNzEuOTM3NSA2MzQuODEyNSwyNjIuNzUgTDYzMy4wNjI1LDI2Mi43NSBRNjMzLjA2MjUsMjYyLjc1IDYzMy4wNjI1LDI3MS45Mzc1IEw2MzQuODEyNSwyNzEuOTM3NSBaIE02MzguMzc1LDI3MS45Mzc1IEw2NDAuMTI1LDI3MS45Mzc1IFE2NDAuMTI1LDI3MS45Mzc1IDY0MC4xMjUsMjY5LjEyNSBMNjM4LjM3NSwyNjkuMTI1IFE2MzguMzc1LDI2OS4xMjUgNjM4LjM3NSwyNzEuOTM3NSBaIE02MzguMzc1LDI2Mi43NSBRNjM4LjM3NSwyNjIuNzUgNjM4LjM3NSwyNjUuNTYyNSBMNjQwLjEyNSwyNjUuNTYyNSBRNjQwLjEyNSwyNjUuNTYyNSA2NDAuMTI1LDI2Mi43NSBMNjM4LjM3NSwyNjIuNzUgWiBNNjM0LjEyNSwyNjMuNDM3NSBMNjM5LjA2MjUsMjYzLjQzNzUgTDYzOS4wNjI1LDI2MS42ODc1IEw2MzQuMTI1LDI2MS42ODc1IEw2MzQuMTI1LDI2My40Mzc1IFogIiBmaWxsPSIjMDAwMDAwIi8+PHRleHQgZmlsbD0iIzAwMDAwMCIgZm9udC1mYW1pbHk9InNhbnMtc2VyaWYiIGZvbnQtc2l6ZT0iMTQiIGxlbmd0aEFkanVzdD0ic3BhY2luZyIgdGV4dExlbmd0aD0iOTEiIHg9IjY1MC41IiB5PSIyNzIuNzQyMiI+TG9hblNsaXBMb2dpYzwvdGV4dD48bGluZSBzdHlsZT0ic3Ryb2tlOiMxODE4MTg7c3Ryb2tlLXdpZHRoOjAuNTsiIHgxPSI2MjIuNSIgeDI9Ijc0My41IiB5MT0iMjgzIiB5Mj0iMjgzIi8+PGxpbmUgc3R5bGU9InN0cm9rZTojMTgxODE4O3N0cm9rZS13aWR0aDowLjU7IiB4MT0iNjIyLjUiIHgyPSI3NDMuNSIgeTE9IjI5MSIgeTI9IjI5MSIvPjwvZz48IS0tY2xhc3MgTGlicmFyeU1hbmFnZW1lbnRTeXN0ZW0tLT48ZyBpZD0iZWxlbV9MaWJyYXJ5TWFuYWdlbWVudFN5c3RlbSI+PHJlY3QgY29kZUxpbmU9IjM2IiBmaWxsPSIjRjFGMUYxIiBoZWlnaHQ9IjYyLjk4NDQiIGlkPSJMaWJyYXJ5TWFuYWdlbWVudFN5c3RlbSIgcng9IjIuNSIgcnk9IjIuNSIgc3R5bGU9InN0cm9rZTojMTgxODE4O3N0cm9rZS13aWR0aDowLjU7IiB3aWR0aD0iMjExIiB4PSI2MTUuNSIgeT0iNyIvPjxlbGxpcHNlIGN4PSI2MzcuNyIgY3k9IjIzIiBmaWxsPSIjQUREMUIyIiByeD0iMTEiIHJ5PSIxMSIgc3R5bGU9InN0cm9rZTojMTgxODE4O3N0cm9rZS13aWR0aDoxLjA7Ii8+PHBhdGggZD0iTTYzNS4zMjUsMjcuMjUgTDYzNS4zMjUsMjkgTDY0MC4yNjI1LDI5IEw2NDAuMjYyNSwyNy4yNSBMNjM1LjMyNSwyNy4yNSBaIE02MzYuMDEyNSwyNy45Mzc1IFE2MzYuMDEyNSwyNy45Mzc1IDYzNi4wMTI1LDE4Ljc1IEw2MzQuMjYyNSwxOC43NSBRNjM0LjI2MjUsMTguNzUgNjM0LjI2MjUsMjcuOTM3NSBMNjM2LjAxMjUsMjcuOTM3NSBaIE02MzkuNTc1LDI3LjkzNzUgTDY0MS4zMjUsMjcuOTM3NSBRNjQxLjMyNSwyNy45Mzc1IDY0MS4zMjUsMjUuMTI1IEw2MzkuNTc1LDI1LjEyNSBRNjM5LjU3NSwyNS4xMjUgNjM5LjU3NSwyNy45Mzc1IFogTTYzOS41NzUsMTguNzUgUTYzOS41NzUsMTguNzUgNjM5LjU3NSwyMS41NjI1IEw2NDEuMzI1LDIxLjU2MjUgUTY0MS4zMjUsMjEuNTYyNSA2NDEuMzI1LDE4Ljc1IEw2MzkuNTc1LDE4Ljc1IFogTTYzNS4zMjUsMTkuNDM3NSBMNjQwLjI2MjUsMTkuNDM3NSBMNjQwLjI2MjUsMTcuNjg3NSBMNjM1LjMyNSwxNy42ODc1IEw2MzUuMzI1LDE5LjQzNzUgWiAiIGZpbGw9IiMwMDAwMDAiLz48dGV4dCBmaWxsPSIjMDAwMDAwIiBmb250LWZhbWlseT0ic2Fucy1zZXJpZiIgZm9udC1zaXplPSIxNCIgbGVuZ3RoQWRqdXN0PSJzcGFjaW5nIiB0ZXh0TGVuZ3RoPSIxNjMiIHg9IjY1My4zIiB5PSIyOC43NDIyIj5MaWJyYXJ5TWFuYWdlbWVudFN5c3RlbTwvdGV4dD48bGluZSBzdHlsZT0ic3Ryb2tlOiMxODE4MTg7c3Ryb2tlLXdpZHRoOjAuNTsiIHgxPSI2MTYuNSIgeDI9IjgyNS41IiB5MT0iMzkiIHkyPSIzOSIvPjxsaW5lIHN0eWxlPSJzdHJva2U6IzE4MTgxODtzdHJva2Utd2lkdGg6MC41OyIgeDE9IjYxNi41IiB4Mj0iODI1LjUiIHkxPSI0NyIgeTI9IjQ3Ii8+PGVsbGlwc2UgY3g9IjYyNi41IiBjeT0iNTkuOTkyMiIgZmlsbD0iIzg0QkU4NCIgcng9IjMiIHJ5PSIzIiBzdHlsZT0ic3Ryb2tlOiMwMzgwNDg7c3Ryb2tlLXdpZHRoOjEuMDsiLz48dGV4dCBmaWxsPSIjMDAwMDAwIiBmb250LWZhbWlseT0ic2Fucy1zZXJpZiIgZm9udC1zaXplPSIxNCIgbGVuZ3RoQWRqdXN0PSJzcGFjaW5nIiB0ZXh0TGVuZ3RoPSIxODUiIHg9IjYzNS41IiB5PSI2NC4yMzQ0Ij5tYWluKGFyZ3M6IFN0cmluZ1tdKTogdm9pZDwvdGV4dD48L2c+PCEtLWNsYXNzIERpc3BsYXlhYmxlLS0+PGcgaWQ9ImVsZW1fRGlzcGxheWFibGUiPjxyZWN0IGZpbGw9IiNGMUYxRjEiIGhlaWdodD0iNDgiIGlkPSJEaXNwbGF5YWJsZSIgcng9IjIuNSIgcnk9IjIuNSIgc3R5bGU9InN0cm9rZTojMTgxODE4O3N0cm9rZS13aWR0aDowLjU7IiB3aWR0aD0iMTA5IiB4PSIyMjguNSIgeT0iODMwIi8+PGVsbGlwc2UgY3g9IjI0My41IiBjeT0iODQ2IiBmaWxsPSIjQUREMUIyIiByeD0iMTEiIHJ5PSIxMSIgc3R5bGU9InN0cm9rZTojMTgxODE4O3N0cm9rZS13aWR0aDoxLjA7Ii8+PHBhdGggZD0iTTI0MS4xMjUsODUwLjI1IEwyNDEuMTI1LDg1MiBMMjQ2LjA2MjUsODUyIEwyNDYuMDYyNSw4NTAuMjUgTDI0MS4xMjUsODUwLjI1IFogTTI0MS44MTI1LDg1MC45Mzc1IFEyNDEuODEyNSw4NTAuOTM3NSAyNDEuODEyNSw4NDEuNzUgTDI0MC4wNjI1LDg0MS43NSBRMjQwLjA2MjUsODQxLjc1IDI0MC4wNjI1LDg1MC45Mzc1IEwyNDEuODEyNSw4NTAuOTM3NSBaIE0yNDUuMzc1LDg1MC45Mzc1IEwyNDcuMTI1LDg1MC45Mzc1IFEyNDcuMTI1LDg1MC45Mzc1IDI0Ny4xMjUsODQ4LjEyNSBMMjQ1LjM3NSw4NDguMTI1IFEyNDUuMzc1LDg0OC4xMjUgMjQ1LjM3NSw4NTAuOTM3NSBaIE0yNDUuMzc1LDg0MS43NSBRMjQ1LjM3NSw4NDEuNzUgMjQ1LjM3NSw4NDQuNTYyNSBMMjQ3LjEyNSw4NDQuNTYyNSBRMjQ3LjEyNSw4NDQuNTYyNSAyNDcuMTI1LDg0MS43NSBMMjQ1LjM3NSw4NDEuNzUgWiBNMjQxLjEyNSw4NDIuNDM3NSBMMjQ2LjA2MjUsODQyLjQzNzUgTDI0Ni4wNjI1LDg0MC42ODc1IEwyNDEuMTI1LDg0MC42ODc1IEwyNDEuMTI1LDg0Mi40Mzc1IFogIiBmaWxsPSIjMDAwMDAwIi8+PHRleHQgZmlsbD0iIzAwMDAwMCIgZm9udC1mYW1pbHk9InNhbnMtc2VyaWYiIGZvbnQtc2l6ZT0iMTQiIGxlbmd0aEFkanVzdD0ic3BhY2luZyIgdGV4dExlbmd0aD0iNzciIHg9IjI1Ny41IiB5PSI4NTEuNzQyMiI+RGlzcGxheWFibGU8L3RleHQ+PGxpbmUgc3R5bGU9InN0cm9rZTojMTgxODE4O3N0cm9rZS13aWR0aDowLjU7IiB4MT0iMjI5LjUiIHgyPSIzMzYuNSIgeTE9Ijg2MiIgeTI9Ijg2MiIvPjxsaW5lIHN0eWxlPSJzdHJva2U6IzE4MTgxODtzdHJva2Utd2lkdGg6MC41OyIgeDE9IjIyOS41IiB4Mj0iMzM2LjUiIHkxPSI4NzAiIHkyPSI4NzAiLz48L2c+PCEtLWNsYXNzIFBlcnNvbi0tPjxnIGlkPSJlbGVtX1BlcnNvbiI+PHJlY3QgZmlsbD0iI0YxRjFGMSIgaGVpZ2h0PSI0OCIgaWQ9IlBlcnNvbiIgcng9IjIuNSIgcnk9IjIuNSIgc3R5bGU9InN0cm9rZTojMTgxODE4O3N0cm9rZS13aWR0aDowLjU7IiB3aWR0aD0iNzQiIHg9IjM3MyIgeT0iODMwIi8+PGVsbGlwc2UgY3g9IjM4OCIgY3k9Ijg0NiIgZmlsbD0iI0FERDFCMiIgcng9IjExIiByeT0iMTEiIHN0eWxlPSJzdHJva2U6IzE4MTgxODtzdHJva2Utd2lkdGg6MS4wOyIvPjxwYXRoIGQ9Ik0zODUuNjI1LDg1MC4yNSBMMzg1LjYyNSw4NTIgTDM5MC41NjI1LDg1MiBMMzkwLjU2MjUsODUwLjI1IEwzODUuNjI1LDg1MC4yNSBaIE0zODYuMzEyNSw4NTAuOTM3NSBRMzg2LjMxMjUsODUwLjkzNzUgMzg2LjMxMjUsODQxLjc1IEwzODQuNTYyNSw4NDEuNzUgUTM4NC41NjI1LDg0MS43NSAzODQuNTYyNSw4NTAuOTM3NSBMMzg2LjMxMjUsODUwLjkzNzUgWiBNMzg5Ljg3NSw4NTAuOTM3NSBMMzkxLjYyNSw4NTAuOTM3NSBRMzkxLjYyNSw4NTAuOTM3NSAzOTEuNjI1LDg0OC4xMjUgTDM4OS44NzUsODQ4LjEyNSBRMzg5Ljg3NSw4NDguMTI1IDM4OS44NzUsODUwLjkzNzUgWiBNMzg5Ljg3NSw4NDEuNzUgUTM4OS44NzUsODQxLjc1IDM4OS44NzUsODQ0LjU2MjUgTDM5MS42MjUsODQ0LjU2MjUgUTM5MS42MjUsODQ0LjU2MjUgMzkxLjYyNSw4NDEuNzUgTDM4OS44NzUsODQxLjc1IFogTTM4NS42MjUsODQyLjQzNzUgTDM5MC41NjI1LDg0Mi40Mzc1IEwzOTAuNTYyNSw4NDAuNjg3NSBMMzg1LjYyNSw4NDAuNjg3NSBMMzg1LjYyNSw4NDIuNDM3NSBaICIgZmlsbD0iIzAwMDAwMCIvPjx0ZXh0IGZpbGw9IiMwMDAwMDAiIGZvbnQtZmFtaWx5PSJzYW5zLXNlcmlmIiBmb250LXNpemU9IjE0IiBsZW5ndGhBZGp1c3Q9InNwYWNpbmciIHRleHRMZW5ndGg9IjQyIiB4PSI0MDIiIHk9Ijg1MS43NDIyIj5QZXJzb248L3RleHQ+PGxpbmUgc3R5bGU9InN0cm9rZTojMTgxODE4O3N0cm9rZS13aWR0aDowLjU7IiB4MT0iMzc0IiB4Mj0iNDQ2IiB5MT0iODYyIiB5Mj0iODYyIi8+PGxpbmUgc3R5bGU9InN0cm9rZTojMTgxODE4O3N0cm9rZS13aWR0aDowLjU7IiB4MT0iMzc0IiB4Mj0iNDQ2IiB5MT0iODcwIiB5Mj0iODcwIi8+PC9nPjwhLS1saW5rIExpYnJhcnlNYW5hZ2VtZW50U3lzdGVtIHRvIEJvb2tEYXQtLT48ZyBpZD0ibGlua19MaWJyYXJ5TWFuYWdlbWVudFN5c3RlbV9Cb29rRGF0Ij48cGF0aCBjb2RlTGluZT0iNDAiIGQ9Ik04MjYuNTIsNDQuODggQzg5NC4yNSw1MC44IDk3My40Miw2My4xNyA5OTUsODkgQzEwNjIuOSwxNzAuMjcgMTAzMy4wNCwyNTcuMjcgOTUwLDMyMyBDOTI3LjUyLDM0MC43OSA5MTEuNDksMzE3Ljg5IDg4NiwzMzEgQzg2OS41NiwzMzkuNDYgODU1LjM2LDM1NC40NSA4NDUuMDEsMzY3LjggIiBmaWxsPSJub25lIiBpZD0iTGlicmFyeU1hbmFnZW1lbnRTeXN0ZW0tdG8tQm9va0RhdCIgc3R5bGU9InN0cm9rZTojMTgxODE4O3N0cm9rZS13aWR0aDoxLjA7Ii8+PHBvbHlnb24gZmlsbD0iIzE4MTgxOCIgcG9pbnRzPSI4NDEuOTIsMzcxLjg4LDg1MC41NDE4LDM2Ny4xMTkyLDg0NC45MzgyLDM2Ny44OTM3LDg0NC4xNjM3LDM2Mi4yOTAxLDg0MS45MiwzNzEuODgiIHN0eWxlPSJzdHJva2U6IzE4MTgxODtzdHJva2Utd2lkdGg6MS4wOyIvPjwvZz48IS0tbGluayBMaWJyYXJ5TWFuYWdlbWVudFN5c3RlbSB0byBCb3Jyb3dlckRhdC0tPjxnIGlkPSJsaW5rX0xpYnJhcnlNYW5hZ2VtZW50U3lzdGVtX0JvcnJvd2VyRGF0Ij48cGF0aCBjb2RlTGluZT0iNDEiIGQ9Ik04MjYuNjIsNDEuNjIgQzkwOC4yOSw0NS43NiAxMDExLjg4LDU3LjMzIDEwMzksODkgQzExMDcsMTY4LjQxIDEwNTguODQsMjI4LjA5IDEwMTUsMzIzIEMxMDA3LjQzLDMzOS40IDk5NS4zOSwzNTUuMzggOTg0LjMzLDM2OC4xMSAiIGZpbGw9Im5vbmUiIGlkPSJMaWJyYXJ5TWFuYWdlbWVudFN5c3RlbS10by1Cb3Jyb3dlckRhdCIgc3R5bGU9InN0cm9rZTojMTgxODE4O3N0cm9rZS13aWR0aDoxLjA7Ii8+PHBvbHlnb24gZmlsbD0iIzE4MTgxOCIgcG9pbnRzPSI5ODAuOTQsMzcxLjk1LDk4OS45MDEyLDM2Ny44NjM4LDk4NC4yNTQ3LDM2OC4yMDY3LDk4My45MTE4LDM2Mi41NjAyLDk4MC45NCwzNzEuOTUiIHN0eWxlPSJzdHJva2U6IzE4MTgxODtzdHJva2Utd2lkdGg6MS4wOyIvPjwvZz48IS0tbGluayBMaWJyYXJ5TWFuYWdlbWVudFN5c3RlbSB0byBMb2FuU2xpcERhdC0tPjxnIGlkPSJsaW5rX0xpYnJhcnlNYW5hZ2VtZW50U3lzdGVtX0xvYW5TbGlwRGF0Ij48cGF0aCBjb2RlTGluZT0iNDIiIGQ9Ik04MjYuOCw0OC4yNSBDODgyLjg2LDU1LjMyIDk0My42Nyw2Ny43MyA5NjEsODkgQzk5Mi43MiwxMjcuOTMgOTc0LjAyLDE1My40OSA5NjEsMjAyIEM5NDQuODksMjYyIDk0My43NywyOTAuMjEgODkxLDMyMyBDODY3LjkyLDMzNy4zNCA3OTQuMDcsMzIwLjUyIDc2OSwzMzEgQzc0OS44MiwzMzkuMDIgNzMyLjI5LDM1NC4zNCA3MTkuMzMsMzY3Ljk4ICIgZmlsbD0ibm9uZSIgaWQ9IkxpYnJhcnlNYW5hZ2VtZW50U3lzdGVtLXRvLUxvYW5TbGlwRGF0IiBzdHlsZT0ic3Ryb2tlOiMxODE4MTg7c3Ryb2tlLXdpZHRoOjEuMDsiLz48cG9seWdvbiBmaWxsPSIjMTgxODE4IiBwb2ludHM9IjcxNS44LDM3MS43OCw3MjQuODU3NiwzNjcuOTEyMSw3MTkuMjA0NCwzNjguMTE4MSw3MTguOTk4NSwzNjIuNDY1LDcxNS44LDM3MS43OCIgc3R5bGU9InN0cm9rZTojMTgxODE4O3N0cm9rZS13aWR0aDoxLjA7Ii8+PC9nPjwhLS1saW5rIExpYnJhcnlNYW5hZ2VtZW50U3lzdGVtIHRvIEFjY291bnQtLT48ZyBpZD0ibGlua19MaWJyYXJ5TWFuYWdlbWVudFN5c3RlbV9BY2NvdW50Ij48cGF0aCBjb2RlTGluZT0iNDMiIGQ9Ik02MTUuMiw0Mi4wOCBDNDU0LjUyLDQ2LjkyIDE2My41OSw1OS42NiAxMjYsODkgQzU3LjUzLDE0Mi40NSA2MywxODcuMTQgNjMsMjc0IEM2MywyNzQgNjMsMjc0IDYzLDUxOCBDNjMsNTg5LjU3IDYzLDY3My44NCA2Myw3MTYuNzcgIiBmaWxsPSJub25lIiBpZD0iTGlicmFyeU1hbmFnZW1lbnRTeXN0ZW0tdG8tQWNjb3VudCIgc3R5bGU9InN0cm9rZTojMTgxODE4O3N0cm9rZS13aWR0aDoxLjA7Ii8+PHBvbHlnb24gZmlsbD0iIzE4MTgxOCIgcG9pbnRzPSI2Myw3MjEuOCw2Nyw3MTIuOCw2Myw3MTYuOCw1OSw3MTIuOCw2Myw3MjEuOCIgc3R5bGU9InN0cm9rZTojMTgxODE4O3N0cm9rZS13aWR0aDoxLjA7Ii8+PC9nPjwhLS1saW5rIExpYnJhcnlNYW5hZ2VtZW50U3lzdGVtIHRvIEJvb2stLT48ZyBpZD0ibGlua19MaWJyYXJ5TWFuYWdlbWVudFN5c3RlbV9Cb29rIj48cGF0aCBjb2RlTGluZT0iNDQiIGQ9Ik02MTUuMzksNDQuODYgQzQ4OC42Myw1Mi4yMyAyODkuNjgsNjcuMSAyNjMsODkgQzE5Ni40LDE0My42NyAyMDUsMTg3LjgzIDIwNSwyNzQgQzIwNSwyNzQgMjA1LDI3NCAyMDUsNTE4IEMyMDUsNTk0LjM1IDI0OC40NSw2NzYuMTUgMjczLjkzLDcxNy41NyAiIGZpbGw9Im5vbmUiIGlkPSJMaWJyYXJ5TWFuYWdlbWVudFN5c3RlbS10by1Cb29rIiBzdHlsZT0ic3Ryb2tlOiMxODE4MTg7c3Ryb2tlLXdpZHRoOjEuMDsiLz48cG9seWdvbiBmaWxsPSIjMTgxODE4IiBwb2ludHM9IjI3Ni42NSw3MjEuOTQsMjc1LjMxMDUsNzEyLjE4MjcsMjc0LjAxNjcsNzE3LjY4OTYsMjY4LjUwOTgsNzE2LjM5NTksMjc2LjY1LDcyMS45NCIgc3R5bGU9InN0cm9rZTojMTgxODE4O3N0cm9rZS13aWR0aDoxLjA7Ii8+PC9nPjwhLS1saW5rIExpYnJhcnlNYW5hZ2VtZW50U3lzdGVtIHRvIEJvcnJvd2VyLS0+PGcgaWQ9ImxpbmtfTGlicmFyeU1hbmFnZW1lbnRTeXN0ZW1fQm9ycm93ZXIiPjxwYXRoIGNvZGVMaW5lPSI0NSIgZD0iTTYxNS4yNyw0NS45NSBDNTAxLjgyLDUzLjg2IDMzNC44Niw2OC43NiAzMTMsODkgQzI1MS40OCwxNDUuOTggMjc2LDE5MC4xNSAyNzYsMjc0IEMyNzYsMjc0IDI3NiwyNzQgMjc2LDUxOCBDMjc2LDU5OSAzMzguMDksNjc4LjE0IDM3NS4xLDcxOC4xMSAiIGZpbGw9Im5vbmUiIGlkPSJMaWJyYXJ5TWFuYWdlbWVudFN5c3RlbS10by1Cb3Jyb3dlciIgc3R5bGU9InN0cm9rZTojMTgxODE4O3N0cm9rZS13aWR0aDoxLjA7Ii8+PHBvbHlnb24gZmlsbD0iIzE4MTgxOCIgcG9pbnRzPSIzNzguNiw3MjEuODYsMzc1LjM4MjEsNzEyLjU1MTcsMzc1LjE4NzksNzE4LjIwNTIsMzY5LjUzNDQsNzE4LjAxMSwzNzguNiw3MjEuODYiIHN0eWxlPSJzdHJva2U6IzE4MTgxODtzdHJva2Utd2lkdGg6MS4wOyIvPjwvZz48IS0tbGluayBMaWJyYXJ5TWFuYWdlbWVudFN5c3RlbSB0byBMb2FuU2xpcC0tPjxnIGlkPSJsaW5rX0xpYnJhcnlNYW5hZ2VtZW50U3lzdGVtX0xvYW5TbGlwIj48cGF0aCBjb2RlTGluZT0iNDYiIGQ9Ik02MTUuNDEsNDMuMzkgQzQ3MS44MSw0OS41OSAyMjkuMDUsNjMuNjkgMTk3LDg5IEMxMjguODMsMTQyLjgzIDEzNCwxODcuMTQgMTM0LDI3NCBDMTM0LDI3NCAxMzQsMjc0IDEzNCw1MTggQzEzNCw1OTEuMDMgMTU4LjUzLDY3NC4zNiAxNzIuODgsNzE2Ljg1ICIgZmlsbD0ibm9uZSIgaWQ9IkxpYnJhcnlNYW5hZ2VtZW50U3lzdGVtLXRvLUxvYW5TbGlwIiBzdHlsZT0ic3Ryb2tlOiMxODE4MTg7c3Ryb2tlLXdpZHRoOjEuMDsiLz48cG9seWdvbiBmaWxsPSIjMTgxODE4IiBwb2ludHM9IjE3NC41OCw3MjEuODMsMTc1LjQ1NzgsNzEyLjAyMDMsMTcyLjk2NDYsNzE3LjA5ODEsMTY3Ljg4NjgsNzE0LjYwNSwxNzQuNTgsNzIxLjgzIiBzdHlsZT0ic3Ryb2tlOiMxODE4MTg7c3Ryb2tlLXdpZHRoOjEuMDsiLz48L2c+PCEtLWxpbmsgTGlicmFyeU1hbmFnZW1lbnRTeXN0ZW0gdG8gTGlzdEJvb2stLT48ZyBpZD0ibGlua19MaWJyYXJ5TWFuYWdlbWVudFN5c3RlbV9MaXN0Qm9vayI+PHBhdGggY29kZUxpbmU9IjQ3IiBkPSJNODI2LjcyLDQyLjE3IEM5NjkuOTIsNDYuODkgMTIxMC45Miw1OS4yIDEyMzgsODkgQzEyOTEuMDYsMTQ3LjM4IDEyOTMuNDIsMzg3Ljg2IDEyMzgsNDQ0IEMxMjI1Ljg2LDQ1Ni4zIDYzMS44Nyw0NDUuMTYgNjE2LDQ1MiBDNTk4LjM2LDQ1OS42IDU4My4yNSw0NzQuODkgNTcyLjM2LDQ4OC42MSAiIGZpbGw9Im5vbmUiIGlkPSJMaWJyYXJ5TWFuYWdlbWVudFN5c3RlbS10by1MaXN0Qm9vayIgc3R5bGU9InN0cm9rZTojMTgxODE4O3N0cm9rZS13aWR0aDoxLjA7Ii8+PHBvbHlnb24gZmlsbD0iIzE4MTgxOCIgcG9pbnRzPSI1NjkuMTIsNDkyLjgxLDU3Ny43ODc3LDQ4OC4xMzMzLDU3Mi4xNzY4LDQ4OC44NTMzLDU3MS40NTY5LDQ4My4yNDI0LDU2OS4xMiw0OTIuODEiIHN0eWxlPSJzdHJva2U6IzE4MTgxODtzdHJva2Utd2lkdGg6MS4wOyIvPjwvZz48IS0tbGluayBMaWJyYXJ5TWFuYWdlbWVudFN5c3RlbSB0byBMaXN0Qm9ycm93ZXItLT48ZyBpZD0ibGlua19MaWJyYXJ5TWFuYWdlbWVudFN5c3RlbV9MaXN0Qm9ycm93ZXIiPjxwYXRoIGNvZGVMaW5lPSI0OCIgZD0iTTgyNi44LDQwLjgxIEM5ODcuMyw0My45MSAxMjc3LjExLDU0LjMxIDEzMDksODkgQzE0MTUuNzgsMjA1LjE1IDE0MTMuOSwzMjYuMTUgMTMwOSw0NDQgQzEyNzIuNjIsNDg0Ljg4IDkwNi4wOCw1MDYuMTkgNzU1Ljc4LDUxMy4yNyAiIGZpbGw9Im5vbmUiIGlkPSJMaWJyYXJ5TWFuYWdlbWVudFN5c3RlbS10by1MaXN0Qm9ycm93ZXIiIHN0eWxlPSJzdHJva2U6IzE4MTgxODtzdHJva2Utd2lkdGg6MS4wOyIvPjxwb2x5Z29uIGZpbGw9IiMxODE4MTgiIHBvaW50cz0iNzUwLjUyLDUxMy41Miw3NTkuNjkzNyw1MTcuMTAzNiw3NTUuNTE0OCw1MTMuMjkxLDc1OS4zMjc0LDUwOS4xMTIsNzUwLjUyLDUxMy41MiIgc3R5bGU9InN0cm9rZTojMTgxODE4O3N0cm9rZS13aWR0aDoxLjA7Ii8+PC9nPjwhLS1saW5rIExpYnJhcnlNYW5hZ2VtZW50U3lzdGVtIHRvIExpc3RMb2FuU2xpcC0tPjxnIGlkPSJsaW5rX0xpYnJhcnlNYW5hZ2VtZW50U3lzdGVtX0xpc3RMb2FuU2xpcCI+PHBhdGggY29kZUxpbmU9IjQ5IiBkPSJNODI2LjcyLDM5LjI1IEM5MjAuODMsNDEuNTQgMTA0OC41MSw1MS43MyAxMDgxLDg5IEMxMTg1LjgsMjA5LjE5IDExNTYuNDgsMzQ4LjIgMTAyOSw0NDQgQzEwMDUuMTksNDYxLjg5IDUyMC45LDQ0MS41OCA0OTMsNDUyIEM0NzIuNzYsNDU5LjU2IDQ1NC4xNCw0NzUuMDQgNDQwLjM5LDQ4OC44OCAiIGZpbGw9Im5vbmUiIGlkPSJMaWJyYXJ5TWFuYWdlbWVudFN5c3RlbS10by1MaXN0TG9hblNsaXAiIHN0eWxlPSJzdHJva2U6IzE4MTgxODtzdHJva2Utd2lkdGg6MS4wOyIvPjxwb2x5Z29uIGZpbGw9IiMxODE4MTgiIHBvaW50cz0iNDM2LjY1LDQ5Mi43Myw0NDUuNzkxNSw0ODkuMDY0OCw0NDAuMTM1Miw0ODkuMTQ0OCw0NDAuMDU1Miw0ODMuNDg4NSw0MzYuNjUsNDkyLjczIiBzdHlsZT0ic3Ryb2tlOiMxODE4MTg7c3Ryb2tlLXdpZHRoOjEuMDsiLz48L2c+PCEtLWxpbmsgTGlicmFyeU1hbmFnZW1lbnRTeXN0ZW0gdG8gQm9va01hbmFnZW1lbnQtLT48ZyBpZD0ibGlua19MaWJyYXJ5TWFuYWdlbWVudFN5c3RlbV9Cb29rTWFuYWdlbWVudCI+PHBhdGggY29kZUxpbmU9IjUwIiBkPSJNNjg1LjU1LDcwLjIxIEM2NjUuMjMsODcuODIgNjM5Ljk5LDEwOS42OSA2MjAuNTUsMTI2LjUzICIgZmlsbD0ibm9uZSIgaWQ9IkxpYnJhcnlNYW5hZ2VtZW50U3lzdGVtLXRvLUJvb2tNYW5hZ2VtZW50IiBzdHlsZT0ic3Ryb2tlOiMxODE4MTg7c3Ryb2tlLXdpZHRoOjEuMDsiLz48cG9seWdvbiBmaWxsPSIjMTgxODE4IiBwb2ludHM9IjYxNi43NSwxMjkuODMsNjI2LjE2OTcsMTI2Ljk1NDMsNjIwLjUyNywxMjYuNTUzNyw2MjAuOTI3NiwxMjAuOTExMSw2MTYuNzUsMTI5LjgzIiBzdHlsZT0ic3Ryb2tlOiMxODE4MTg7c3Ryb2tlLXdpZHRoOjEuMDsiLz48L2c+PCEtLWxpbmsgTGlicmFyeU1hbmFnZW1lbnRTeXN0ZW0gdG8gQm9ycm93ZXJNYW5hZ2VtZW50LS0+PGcgaWQ9ImxpbmtfTGlicmFyeU1hbmFnZW1lbnRTeXN0ZW1fQm9ycm93ZXJNYW5hZ2VtZW50Ij48cGF0aCBjb2RlTGluZT0iNTEiIGQ9Ik02MTUuMjcsNTYuMjggQzU3OS45OSw2My44OCA1NDEuMDMsNzQuNSA1MDcsODkgQzQ4NC4yNSw5OC43IDQ2MC45OSwxMTMuNjMgNDQyLjg0LDEyNi42NCAiIGZpbGw9Im5vbmUiIGlkPSJMaWJyYXJ5TWFuYWdlbWVudFN5c3RlbS10by1Cb3Jyb3dlck1hbmFnZW1lbnQiIHN0eWxlPSJzdHJva2U6IzE4MTgxODtzdHJva2Utd2lkdGg6MS4wOyIvPjxwb2x5Z29uIGZpbGw9IiMxODE4MTgiIHBvaW50cz0iNDM4LjM0LDEyOS45LDQ0Ny45Nzg2LDEyNy44NzU4LDQ0Mi4zOTQxLDEyNi45NzM2LDQ0My4yOTYzLDEyMS4zODkxLDQzOC4zNCwxMjkuOSIgc3R5bGU9InN0cm9rZTojMTgxODE4O3N0cm9rZS13aWR0aDoxLjA7Ii8+PC9nPjwhLS1saW5rIExpYnJhcnlNYW5hZ2VtZW50U3lzdGVtIHRvIExvYW5TbGlwTWFuYWdlbWVudC0tPjxnIGlkPSJsaW5rX0xpYnJhcnlNYW5hZ2VtZW50U3lzdGVtX0xvYW5TbGlwTWFuYWdlbWVudCI+PHBhdGggY29kZUxpbmU9IjUyIiBkPSJNNzYwLjI0LDcwLjIxIEM3ODIuODIsODcuODkgODEwLjksMTA5Ljg3IDgzMi40NSwxMjYuNzQgIiBmaWxsPSJub25lIiBpZD0iTGlicmFyeU1hbmFnZW1lbnRTeXN0ZW0tdG8tTG9hblNsaXBNYW5hZ2VtZW50IiBzdHlsZT0ic3Ryb2tlOiMxODE4MTg7c3Ryb2tlLXdpZHRoOjEuMDsiLz48cG9seWdvbiBmaWxsPSIjMTgxODE4IiBwb2ludHM9IjgzNi4zOSwxMjkuODMsODMxLjc2MzQsMTIxLjEzNTUsODMyLjQ1MSwxMjYuNzUwNCw4MjYuODM2LDEyNy40Mzc5LDgzNi4zOSwxMjkuODMiIHN0eWxlPSJzdHJva2U6IzE4MTgxODtzdHJva2Utd2lkdGg6MS4wOyIvPjwvZz48IS0tbGluayBMaWJyYXJ5TWFuYWdlbWVudFN5c3RlbSB0byBNZW51LS0+PGcgaWQ9ImxpbmtfTGlicmFyeU1hbmFnZW1lbnRTeXN0ZW1fTWVudSI+PHBhdGggY29kZUxpbmU9IjUzIiBkPSJNNzA5LjUzLDcwLjIxIEM3MDcuNzMsODcuMjMgNzA3LjgzLDEwOC4yMyA3MDkuODEsMTI0LjgzICIgZmlsbD0ibm9uZSIgaWQ9IkxpYnJhcnlNYW5hZ2VtZW50U3lzdGVtLXRvLU1lbnUiIHN0eWxlPSJzdHJva2U6IzE4MTgxODtzdHJva2Utd2lkdGg6MS4wOyIvPjxwb2x5Z29uIGZpbGw9IiMxODE4MTgiIHBvaW50cz0iNzEwLjQ5LDEyOS44Myw3MTMuMjcyNiwxMjAuMzgyNCw3MDkuODMyOSwxMjQuODczNCw3MDUuMzQyLDEyMS40MzM3LDcxMC40OSwxMjkuODMiIHN0eWxlPSJzdHJva2U6IzE4MTgxODtzdHJva2Utd2lkdGg6MS4wOyIvPjwvZz48IS0tbGluayBMaWJyYXJ5TWFuYWdlbWVudFN5c3RlbSB0byBNZW51LS0+PGcgaWQ9ImxpbmtfTGlicmFyeU1hbmFnZW1lbnRTeXN0ZW1fTWVudSI+PHBhdGggY29kZUxpbmU9Ijc0IiBkPSJNNzMzLjE1LDcwLjIxIEM3MzUuMDUsODcuMjMgNzM0Ljk1LDEwOC4yMyA3MzIuODUsMTI0LjgzICIgZmlsbD0ibm9uZSIgaWQ9IkxpYnJhcnlNYW5hZ2VtZW50U3lzdGVtLXRvLU1lbnUtMSIgc3R5bGU9InN0cm9rZTojMTgxODE4O3N0cm9rZS13aWR0aDoxLjA7Ii8+PHBvbHlnb24gZmlsbD0iIzE4MTgxOCIgcG9pbnRzPSI3MzIuMTMsMTI5LjgzLDczNy4zNTI1LDEyMS40Nzk4LDczMi44MzExLDEyNC44Nzk0LDcyOS40MzE1LDEyMC4zNTgsNzMyLjEzLDEyOS44MyIgc3R5bGU9InN0cm9rZTojMTgxODE4O3N0cm9rZS13aWR0aDoxLjA7Ii8+PC9nPjwhLS1saW5rIEJvb2tEYXQgdG8gTGlzdEJvb2stLT48ZyBpZD0ibGlua19Cb29rRGF0X0xpc3RCb29rIj48cGF0aCBjb2RlTGluZT0iNTQiIGQ9Ik04MDUuMTgsNDIwLjE5IEM3OTUuMTIsNDI5LjMyIDc4Mi40Myw0MzguODQgNzY5LDQ0NCBDNzM3LjIyLDQ1Ni4yIDY0Ni45OSw0MzcuOTEgNjE2LDQ1MiBDNTk4LjY0LDQ1OS44OSA1ODMuNjMsNDc1LjAyIDU3Mi43Miw0ODguNTkgIiBmaWxsPSJub25lIiBpZD0iQm9va0RhdC10by1MaXN0Qm9vayIgc3R5bGU9InN0cm9rZTojMTgxODE4O3N0cm9rZS13aWR0aDoxLjA7Ii8+PHBvbHlnb24gZmlsbD0iIzE4MTgxOCIgcG9pbnRzPSI1NjkuNDcsNDkyLjc0LDU3OC4xNzQ5LDQ4OC4xMzMsNTcyLjU1ODUsNDg4LjgwNzksNTcxLjg4MzYsNDgzLjE5MTUsNTY5LjQ3LDQ5Mi43NCIgc3R5bGU9InN0cm9rZTojMTgxODE4O3N0cm9rZS13aWR0aDoxLjA7Ii8+PC9nPjwhLS1saW5rIEJvcnJvd2VyRGF0IHRvIExpc3RCb3Jyb3dlci0tPjxnIGlkPSJsaW5rX0JvcnJvd2VyRGF0X0xpc3RCb3Jyb3dlciI+PHBhdGggY29kZUxpbmU9IjU1IiBkPSJNOTI1LjQ1LDQyMC4wOCBDOTEzLjEzLDQyOC4yNSA4OTguNzUsNDM3LjExIDg4NSw0NDQgQzg0My4zOSw0NjQuODUgNzk0LjIsNDgzLjExIDc1NS44OSw0OTYuMDMgIiBmaWxsPSJub25lIiBpZD0iQm9ycm93ZXJEYXQtdG8tTGlzdEJvcnJvd2VyIiBzdHlsZT0ic3Ryb2tlOiMxODE4MTg7c3Ryb2tlLXdpZHRoOjEuMDsiLz48cG9seWdvbiBmaWxsPSIjMTgxODE4IiBwb2ludHM9Ijc1MC44LDQ5Ny43Myw3NjAuNjA0OCw0OTguNjYwOSw3NTUuNTQwNSw0OTYuMTQwMyw3NTguMDYxMiw0OTEuMDc2MSw3NTAuOCw0OTcuNzMiIHN0eWxlPSJzdHJva2U6IzE4MTgxODtzdHJva2Utd2lkdGg6MS4wOyIvPjwvZz48IS0tbGluayBCb29rIHRvIERpc3BsYXlhYmxlLS0+PGcgaWQ9ImxpbmtfQm9va19EaXNwbGF5YWJsZSI+PHBhdGggY29kZUxpbmU9IjU2IiBkPSJNMjkwLjA1LDc3MCBDMjg4LjY5LDc4NiAyODYuODcsODA3LjQ1IDI4NS40Miw4MjQuNTMgIiBmaWxsPSJub25lIiBpZD0iQm9vay10by1EaXNwbGF5YWJsZSIgc3R5bGU9InN0cm9rZTojMTgxODE4O3N0cm9rZS13aWR0aDoxLjA7Ii8+PHBvbHlnb24gZmlsbD0iIzE4MTgxOCIgcG9pbnRzPSIyODQuOTgsODI5LjY4LDI4OS43MTE1LDgyMS4wNDIxLDI4NS4zOTQsODI0LjY5NzIsMjgxLjczOSw4MjAuMzc5NywyODQuOTgsODI5LjY4IiBzdHlsZT0ic3Ryb2tlOiMxODE4MTg7c3Ryb2tlLXdpZHRoOjEuMDsiLz48L2c+PCEtLWxpbmsgQm9ycm93ZXIgdG8gUGVyc29uLS0+PGcgaWQ9ImxpbmtfQm9ycm93ZXJfUGVyc29uIj48cGF0aCBjb2RlTGluZT0iNTciIGQ9Ik00MDMuNzQsNzcwIEM0MDQuNjEsNzgxLjU5IDQwNS43LDc5Ni4wMyA0MDYuNzIsODA5LjYgIiBmaWxsPSJub25lIiBpZD0iQm9ycm93ZXItdG8tUGVyc29uIiBzdHlsZT0ic3Ryb2tlOiMxODE4MTg7c3Ryb2tlLXdpZHRoOjEuMDsiLz48cG9seWdvbiBmaWxsPSJub25lIiBwb2ludHM9IjQxMy43MSw4MDkuMjEsNDA4LjI0LDgyOS42OCwzOTkuNzUsODEwLjI2LDQxMy43MSw4MDkuMjEiIHN0eWxlPSJzdHJva2U6IzE4MTgxODtzdHJva2Utd2lkdGg6MS4wOyIvPjwvZz48IS0tbGluayBCb3Jyb3dlciB0byBEaXNwbGF5YWJsZS0tPjxnIGlkPSJsaW5rX0JvcnJvd2VyX0Rpc3BsYXlhYmxlIj48cGF0aCBjb2RlTGluZT0iNTgiIGQ9Ik0zNzYuMTgsNzcwIEMzNTcuNTksNzg2LjU1IDMzMi40Nyw4MDguOTMgMzEzLDgyNi4yOCAiIGZpbGw9Im5vbmUiIGlkPSJCb3Jyb3dlci10by1EaXNwbGF5YWJsZSIgc3R5bGU9InN0cm9rZTojMTgxODE4O3N0cm9rZS13aWR0aDoxLjA7Ii8+PHBvbHlnb24gZmlsbD0iIzE4MTgxOCIgcG9pbnRzPSIzMDkuMTgsODI5LjY4LDMxOC41NTc3LDgyNi42NzAzLDMxMi45MDk5LDgyNi4zNTAyLDMxMy4yMzAxLDgyMC43MDI0LDMwOS4xOCw4MjkuNjgiIHN0eWxlPSJzdHJva2U6IzE4MTgxODtzdHJva2Utd2lkdGg6MS4wOyIvPjwvZz48IS0tbGluayBMb2FuU2xpcCB0byBEaXNwbGF5YWJsZS0tPjxnIGlkPSJsaW5rX0xvYW5TbGlwX0Rpc3BsYXlhYmxlIj48cGF0aCBjb2RlTGluZT0iNTkiIGQ9Ik0yMDQuNyw3NzAgQzIyMC4xOSw3ODYuNDIgMjQxLjA3LDgwOC41NiAyNTcuMzgsODI1Ljg0ICIgZmlsbD0ibm9uZSIgaWQ9IkxvYW5TbGlwLXRvLURpc3BsYXlhYmxlIiBzdHlsZT0ic3Ryb2tlOiMxODE4MTg7c3Ryb2tlLXdpZHRoOjEuMDsiLz48cG9seWdvbiBmaWxsPSIjMTgxODE4IiBwb2ludHM9IjI2MSw4MjkuNjgsMjU3Ljc0NDUsODIwLjM4NDcsMjU3LjU3MzIsODI2LjAzOSwyNTEuOTE4OSw4MjUuODY3NywyNjEsODI5LjY4IiBzdHlsZT0ic3Ryb2tlOiMxODE4MTg7c3Ryb2tlLXdpZHRoOjEuMDsiLz48L2c+PCEtLWxpbmsgTGlzdEJvb2sgdG8gTm9kZUJvb2stLT48ZyBpZD0ibGlua19MaXN0Qm9va19Ob2RlQm9vayI+PHBhdGggY29kZUxpbmU9IjYwIiBkPSJNNTU0LDU0MSBDNTU0LDU1NyA1NTQsNTc4LjQ1IDU1NCw1OTUuNTMgIiBmaWxsPSJub25lIiBpZD0iTGlzdEJvb2stdG8tTm9kZUJvb2siIHN0eWxlPSJzdHJva2U6IzE4MTgxODtzdHJva2Utd2lkdGg6MS4wOyIvPjxwb2x5Z29uIGZpbGw9IiMxODE4MTgiIHBvaW50cz0iNTU0LDYwMC42OCw1NTgsNTkxLjY4LDU1NCw1OTUuNjgsNTUwLDU5MS42OCw1NTQsNjAwLjY4IiBzdHlsZT0ic3Ryb2tlOiMxODE4MTg7c3Ryb2tlLXdpZHRoOjEuMDsiLz48dGV4dCBmaWxsPSIjMDAwMDAwIiBmb250LWZhbWlseT0ic2Fucy1zZXJpZiIgZm9udC1zaXplPSIxMyIgbGVuZ3RoQWRqdXN0PSJzcGFjaW5nIiB0ZXh0TGVuZ3RoPSI3IiB4PSI1NDYuMTAzMSIgeT0iNTYxLjIyMTgiPjE8L3RleHQ+PHRleHQgZmlsbD0iIzAwMDAwMCIgZm9udC1mYW1pbHk9InNhbnMtc2VyaWYiIGZvbnQtc2l6ZT0iMTMiIGxlbmd0aEFkanVzdD0ic3BhY2luZyIgdGV4dExlbmd0aD0iNiIgeD0iNTQ3LjE1NjMiIHk9IjU5MS40Mjk1Ij4qPC90ZXh0PjwvZz48IS0tbGluayBOb2RlQm9vayB0byBCb29rLS0+PGcgaWQ9ImxpbmtfTm9kZUJvb2tfQm9vayI+PHBhdGggY29kZUxpbmU9IjYxIiBkPSJNNTMwLjg1LDY0OS4yIEM1MjAuMjMsNjU4LjMzIDUwNi45Miw2NjcuODUgNDkzLDY3MyBDNDYxLjA3LDY4NC44MSAzNzAuMDQsNjY0Ljk4IDM0MCw2ODEgQzMyNS4wMiw2ODguOTggMzEzLjQxLDcwMy45MyAzMDUuMzYsNzE3LjM3ICIgZmlsbD0ibm9uZSIgaWQ9Ik5vZGVCb29rLXRvLUJvb2siIHN0eWxlPSJzdHJva2U6IzE4MTgxODtzdHJva2Utd2lkdGg6MS4wOyIvPjxwb2x5Z29uIGZpbGw9IiMxODE4MTgiIHBvaW50cz0iMzAyLjc3LDcyMS44NSwzMTAuNzM1LDcxNi4wNTcsMzA1LjI3MDcsNzE3LjUyMDMsMzAzLjgwNzQsNzEyLjA1NTksMzAyLjc3LDcyMS44NSIgc3R5bGU9InN0cm9rZTojMTgxODE4O3N0cm9rZS13aWR0aDoxLjA7Ii8+PHRleHQgZmlsbD0iIzAwMDAwMCIgZm9udC1mYW1pbHk9InNhbnMtc2VyaWYiIGZvbnQtc2l6ZT0iMTMiIGxlbmd0aEFkanVzdD0ic3BhY2luZyIgdGV4dExlbmd0aD0iNyIgeD0iNTE3LjAyMDkiIHk9IjY2OS40NzMxIj4xPC90ZXh0Pjx0ZXh0IGZpbGw9IiMwMDAwMDAiIGZvbnQtZmFtaWx5PSJzYW5zLXNlcmlmIiBmb250LXNpemU9IjEzIiBsZW5ndGhBZGp1c3Q9InNwYWNpbmciIHRleHRMZW5ndGg9IjciIHg9IjI5Ny45MDU2IiB5PSI3MTIuMjY5OSI+MTwvdGV4dD48L2c+PCEtLWxpbmsgTGlzdEJvcnJvd2VyIHRvIE5vZGVCb3Jyb3dlci0tPjxnIGlkPSJsaW5rX0xpc3RCb3Jyb3dlcl9Ob2RlQm9ycm93ZXIiPjxwYXRoIGNvZGVMaW5lPSI2MiIgZD0iTTY5Miw1NDEgQzY5Miw1NTcgNjkyLDU3OC40NSA2OTIsNTk1LjUzICIgZmlsbD0ibm9uZSIgaWQ9Ikxpc3RCb3Jyb3dlci10by1Ob2RlQm9ycm93ZXIiIHN0eWxlPSJzdHJva2U6IzE4MTgxODtzdHJva2Utd2lkdGg6MS4wOyIvPjxwb2x5Z29uIGZpbGw9IiMxODE4MTgiIHBvaW50cz0iNjkyLDYwMC42OCw2OTYsNTkxLjY4LDY5Miw1OTUuNjgsNjg4LDU5MS42OCw2OTIsNjAwLjY4IiBzdHlsZT0ic3Ryb2tlOiMxODE4MTg7c3Ryb2tlLXdpZHRoOjEuMDsiLz48dGV4dCBmaWxsPSIjMDAwMDAwIiBmb250LWZhbWlseT0ic2Fucy1zZXJpZiIgZm9udC1zaXplPSIxMyIgbGVuZ3RoQWRqdXN0PSJzcGFjaW5nIiB0ZXh0TGVuZ3RoPSI3IiB4PSI2ODQuMTAzMSIgeT0iNTYxLjIyMTgiPjE8L3RleHQ+PHRleHQgZmlsbD0iIzAwMDAwMCIgZm9udC1mYW1pbHk9InNhbnMtc2VyaWYiIGZvbnQtc2l6ZT0iMTMiIGxlbmd0aEFkanVzdD0ic3BhY2luZyIgdGV4dExlbmd0aD0iNiIgeD0iNjg1LjE1NjMiIHk9IjU5MS40Mjk1Ij4qPC90ZXh0PjwvZz48IS0tbGluayBOb2RlQm9ycm93ZXIgdG8gQm9ycm93ZXItLT48ZyBpZD0ibGlua19Ob2RlQm9ycm93ZXJfQm9ycm93ZXIiPjxwYXRoIGNvZGVMaW5lPSI2MyIgZD0iTTY1OC41MSw2NDkuMDIgQzY0NS41OSw2NTcuMjcgNjMwLjQ2LDY2Ni4yMSA2MTYsNjczIEM1NjEuNjgsNjk4LjUyIDQ5NS43OSw3MTkuMjcgNDUxLjYsNzMxLjgyICIgZmlsbD0ibm9uZSIgaWQ9Ik5vZGVCb3Jyb3dlci10by1Cb3Jyb3dlciIgc3R5bGU9InN0cm9rZTojMTgxODE4O3N0cm9rZS13aWR0aDoxLjA7Ii8+PHBvbHlnb24gZmlsbD0iIzE4MTgxOCIgcG9pbnRzPSI0NDYuNTksNzMzLjI0LDQ1Ni4zMzc3LDczNC42NDgsNDUxLjQwMjQsNzMxLjg4MzQsNDU0LjE2NzEsNzI2Ljk0ODEsNDQ2LjU5LDczMy4yNCIgc3R5bGU9InN0cm9rZTojMTgxODE4O3N0cm9rZS13aWR0aDoxLjA7Ii8+PHRleHQgZmlsbD0iIzAwMDAwMCIgZm9udC1mYW1pbHk9InNhbnMtc2VyaWYiIGZvbnQtc2l6ZT0iMTMiIGxlbmd0aEFkanVzdD0ic3BhY2luZyIgdGV4dExlbmd0aD0iNyIgeD0iNjQyLjAzMTMiIHk9IjY2OS4yNDY5Ij4xPC90ZXh0Pjx0ZXh0IGZpbGw9IiMwMDAwMDAiIGZvbnQtZmFtaWx5PSJzYW5zLXNlcmlmIiBmb250LXNpemU9IjEzIiBsZW5ndGhBZGp1c3Q9InNwYWNpbmciIHRleHRMZW5ndGg9IjciIHg9IjQ1NC41NTQ5IiB5PSI3MjkuNDE0OCI+MTwvdGV4dD48L2c+PCEtLWxpbmsgTGlzdExvYW5TbGlwIHRvIE5vZGVMb2FuU2xpcC0tPjxnIGlkPSJsaW5rX0xpc3RMb2FuU2xpcF9Ob2RlTG9hblNsaXAiPjxwYXRoIGNvZGVMaW5lPSI2NCIgZD0iTTQxNyw1NDEgQzQxNyw1NTcgNDE3LDU3OC40NSA0MTcsNTk1LjUzICIgZmlsbD0ibm9uZSIgaWQ9Ikxpc3RMb2FuU2xpcC10by1Ob2RlTG9hblNsaXAiIHN0eWxlPSJzdHJva2U6IzE4MTgxODtzdHJva2Utd2lkdGg6MS4wOyIvPjxwb2x5Z29uIGZpbGw9IiMxODE4MTgiIHBvaW50cz0iNDE3LDYwMC42OCw0MjEsNTkxLjY4LDQxNyw1OTUuNjgsNDEzLDU5MS42OCw0MTcsNjAwLjY4IiBzdHlsZT0ic3Ryb2tlOiMxODE4MTg7c3Ryb2tlLXdpZHRoOjEuMDsiLz48dGV4dCBmaWxsPSIjMDAwMDAwIiBmb250LWZhbWlseT0ic2Fucy1zZXJpZiIgZm9udC1zaXplPSIxMyIgbGVuZ3RoQWRqdXN0PSJzcGFjaW5nIiB0ZXh0TGVuZ3RoPSI3IiB4PSI0MDkuMTAzMSIgeT0iNTYxLjIyMTgiPjE8L3RleHQ+PHRleHQgZmlsbD0iIzAwMDAwMCIgZm9udC1mYW1pbHk9InNhbnMtc2VyaWYiIGZvbnQtc2l6ZT0iMTMiIGxlbmd0aEFkanVzdD0ic3BhY2luZyIgdGV4dExlbmd0aD0iNiIgeD0iNDEwLjE1NjMiIHk9IjU5MS40Mjk1Ij4qPC90ZXh0PjwvZz48IS0tbGluayBOb2RlTG9hblNsaXAgdG8gTG9hblNsaXAtLT48ZyBpZD0ibGlua19Ob2RlTG9hblNsaXBfTG9hblNsaXAiPjxwYXRoIGNvZGVMaW5lPSI2NSIgZD0iTTM1OC45OCw2MzcuMDQgQzMyNC4xMiw2NDUuNDUgMjc5LjksNjU5LjM1IDI0NSw2ODEgQzIyOS4zOSw2OTAuNjggMjE0LjkzLDcwNS4xNSAyMDMuOSw3MTcuODggIiBmaWxsPSJub25lIiBpZD0iTm9kZUxvYW5TbGlwLXRvLUxvYW5TbGlwIiBzdHlsZT0ic3Ryb2tlOiMxODE4MTg7c3Ryb2tlLXdpZHRoOjEuMDsiLz48cG9seWdvbiBmaWxsPSIjMTgxODE4IiBwb2ludHM9IjIwMC41OSw3MjEuNzcsMjA5LjQ1NzcsNzE3LjQ4NDgsMjAzLjgyMDQsNzE3Ljk1MzYsMjAzLjM1MTUsNzEyLjMxNjIsMjAwLjU5LDcyMS43NyIgc3R5bGU9InN0cm9rZTojMTgxODE4O3N0cm9rZS13aWR0aDoxLjA7Ii8+PHRleHQgZmlsbD0iIzAwMDAwMCIgZm9udC1mYW1pbHk9InNhbnMtc2VyaWYiIGZvbnQtc2l6ZT0iMTMiIGxlbmd0aEFkanVzdD0ic3BhY2luZyIgdGV4dExlbmd0aD0iNyIgeD0iMzQ0LjA5NzgiIHk9IjYzNy4wOTc0Ij4xPC90ZXh0Pjx0ZXh0IGZpbGw9IiMwMDAwMDAiIGZvbnQtZmFtaWx5PSJzYW5zLXNlcmlmIiBmb250LXNpemU9IjEzIiBsZW5ndGhBZGp1c3Q9InNwYWNpbmciIHRleHRMZW5ndGg9IjciIHg9IjE5Ny41NTI4IiB5PSI3MTIuNTQ0OCI+MTwvdGV4dD48L2c+PCEtLWxpbmsgQm9va0xvZ2ljIHRvIEJvb2tEYXQtLT48ZyBpZD0ibGlua19Cb29rTG9naWNfQm9va0RhdCI+PHBhdGggY29kZUxpbmU9IjY2IiBkPSJNODI3LDI5OS4yMyBDODI3LDMxOC41NiA4MjcsMzQ2LjE1IDgyNywzNjYuNzUgIiBmaWxsPSJub25lIiBpZD0iQm9va0xvZ2ljLXRvLUJvb2tEYXQiIHN0eWxlPSJzdHJva2U6IzE4MTgxODtzdHJva2Utd2lkdGg6MS4wOyIvPjxwb2x5Z29uIGZpbGw9IiMxODE4MTgiIHBvaW50cz0iODI3LDM3MS44Myw4MzEsMzYyLjgzLDgyNywzNjYuODMsODIzLDM2Mi44Myw4MjcsMzcxLjgzIiBzdHlsZT0ic3Ryb2tlOiMxODE4MTg7c3Ryb2tlLXdpZHRoOjEuMDsiLz48L2c+PCEtLWxpbmsgQm9va0xvZ2ljIHRvIExpc3RCb29rLS0+PGcgaWQ9ImxpbmtfQm9va0xvZ2ljX0xpc3RCb29rIj48cGF0aCBjb2RlTGluZT0iNjciIGQ9Ik04MDIuMDgsMjk5LjE2IEM3OTAuNzEsMzA4LjI4IDc3Ni41NiwzMTcuODEgNzYyLDMyMyBDNzMzLjQ4LDMzMy4xNiA2NTAuNDgsMzEzLjE4IDYyNiwzMzEgQzU3NS4zNiwzNjcuODYgNTYwLjMzLDQ0NS42MSA1NTUuODgsNDg3LjYzICIgZmlsbD0ibm9uZSIgaWQ9IkJvb2tMb2dpYy10by1MaXN0Qm9vayIgc3R5bGU9InN0cm9rZTojMTgxODE4O3N0cm9rZS13aWR0aDoxLjA7Ii8+PHBvbHlnb24gZmlsbD0iIzE4MTgxOCIgcG9pbnRzPSI1NTUuMzYsNDkyLjgyLDU2MC4yMTYyLDQ4NC4yNTE2LDU1NS44NDYyLDQ4Ny44NDM3LDU1Mi4yNTQxLDQ4My40NzM3LDU1NS4zNiw0OTIuODIiIHN0eWxlPSJzdHJva2U6IzE4MTgxODtzdHJva2Utd2lkdGg6MS4wOyIvPjwvZz48IS0tbGluayBMb2FuU2xpcExvZ2ljIHRvIExvYW5TbGlwRGF0LS0+PGcgaWQ9ImxpbmtfTG9hblNsaXBMb2dpY19Mb2FuU2xpcERhdCI+PHBhdGggY29kZUxpbmU9IjY4IiBkPSJNNjg1LjczLDI5OS4yMyBDNjg4LjAxLDMxOC41NiA2OTEuMjUsMzQ2LjE1IDY5My42OCwzNjYuNzUgIiBmaWxsPSJub25lIiBpZD0iTG9hblNsaXBMb2dpYy10by1Mb2FuU2xpcERhdCIgc3R5bGU9InN0cm9rZTojMTgxODE4O3N0cm9rZS13aWR0aDoxLjA7Ii8+PHBvbHlnb24gZmlsbD0iIzE4MTgxOCIgcG9pbnRzPSI2OTQuMjcsMzcxLjgzLDY5Ny4xODk1LDM2Mi40MjM4LDY5My42ODUsMzY2Ljg2NDMsNjg5LjI0NDQsMzYzLjM1OTgsNjk0LjI3LDM3MS44MyIgc3R5bGU9InN0cm9rZTojMTgxODE4O3N0cm9rZS13aWR0aDoxLjA7Ii8+PC9nPjwhLS1saW5rIExvYW5TbGlwTG9naWMgdG8gTGlzdExvYW5TbGlwLS0+PGcgaWQ9ImxpbmtfTG9hblNsaXBMb2dpY19MaXN0TG9hblNsaXAiPjxwYXRoIGNvZGVMaW5lPSI2OSIgZD0iTTY1MS45OCwyOTkuMTcgQzYzOC4wNCwzMDguMyA2MjAuOTQsMzE3LjgyIDYwNCwzMjMgQzU4OC44OSwzMjcuNjIgNDc0LjE1LDMyMC44OSA0NjIsMzMxIEM0MTUuOTYsMzY5LjMzIDQxMi41NSw0NDYuMTIgNDE0LjQ5LDQ4Ny43ICIgZmlsbD0ibm9uZSIgaWQ9IkxvYW5TbGlwTG9naWMtdG8tTGlzdExvYW5TbGlwIiBzdHlsZT0ic3Ryb2tlOiMxODE4MTg7c3Ryb2tlLXdpZHRoOjEuMDsiLz48cG9seWdvbiBmaWxsPSIjMTgxODE4IiBwb2ludHM9IjQxNC43Nyw0OTIuODMsNDE4LjI3NjMsNDgzLjYyNjQsNDE0LjQ5OSw0ODcuODM3NCw0MTAuMjg4LDQ4NC4wNjAxLDQxNC43Nyw0OTIuODMiIHN0eWxlPSJzdHJva2U6IzE4MTgxODtzdHJva2Utd2lkdGg6MS4wOyIvPjwvZz48IS0tbGluayBCb29rTWFuYWdlbWVudCB0byBCb29rTG9naWMtLT48ZyBpZD0ibGlua19Cb29rTWFuYWdlbWVudF9Cb29rTG9naWMiPjxwYXRoIGNvZGVMaW5lPSI3MCIgZD0iTTYyMy42NywxNzguMTIgQzYzOC40NiwxODcuMTIgNjU2LjQ0LDE5Ni41NiA2NzQsMjAyIEM3MTEuNTEsMjEzLjYyIDcyNi4zNywxOTMuNDggNzYyLDIxMCBDNzc5LjcxLDIxOC4yMSA3OTUuNDMsMjMzLjM1IDgwNi45OCwyNDYuODQgIiBmaWxsPSJub25lIiBpZD0iQm9va01hbmFnZW1lbnQtdG8tQm9va0xvZ2ljIiBzdHlsZT0ic3Ryb2tlOiMxODE4MTg7c3Ryb2tlLXdpZHRoOjEuMDsiLz48cG9seWdvbiBmaWxsPSIjMTgxODE4IiBwb2ludHM9IjgxMC40MiwyNTAuOTcsODA3LjczNDcsMjQxLjQ5NDMsODA3LjIyMDUsMjQ3LjEyNzcsODAxLjU4NywyNDYuNjEzNSw4MTAuNDIsMjUwLjk3IiBzdHlsZT0ic3Ryb2tlOiMxODE4MTg7c3Ryb2tlLXdpZHRoOjEuMDsiLz48L2c+PCEtLWxpbmsgQm9ycm93ZXJNYW5hZ2VtZW50IHRvIEJvb2tMb2dpYy0tPjxnIGlkPSJsaW5rX0JvcnJvd2VyTWFuYWdlbWVudF9Cb29rTG9naWMiPjxwYXRoIGNvZGVMaW5lPSI3MSIgZD0iTTQ0Ny42NSwxNzguMTMgQzQ2NS4xNCwxODcuMzcgNDg2LjQ3LDE5Ni45OSA1MDcsMjAyIEM1MzQuNTQsMjA4LjcyIDczNS45NCwxOTguODQgNzYyLDIxMCBDNzgwLjA4LDIxNy43NCA3OTUuOTEsMjMzLjAyIDgwNy40MiwyNDYuNzIgIiBmaWxsPSJub25lIiBpZD0iQm9ycm93ZXJNYW5hZ2VtZW50LXRvLUJvb2tMb2dpYyIgc3R5bGU9InN0cm9rZTojMTgxODE4O3N0cm9rZS13aWR0aDoxLjA7Ii8+PHBvbHlnb24gZmlsbD0iIzE4MTgxOCIgcG9pbnRzPSI4MTAuODUsMjUwLjksODA4LjI0MSwyNDEuNDAzLDgwNy42ODE1LDI0Ny4wMzIxLDgwMi4wNTI0LDI0Ni40NzI2LDgxMC44NSwyNTAuOSIgc3R5bGU9InN0cm9rZTojMTgxODE4O3N0cm9rZS13aWR0aDoxLjA7Ii8+PC9nPjwhLS1saW5rIEJvcnJvd2VyTWFuYWdlbWVudCB0byBCb3Jyb3dlckxvZ2ljLS0+PGcgaWQ9ImxpbmtfQm9ycm93ZXJNYW5hZ2VtZW50X0JvcnJvd2VyTG9naWMiPjxwYXRoIGNvZGVMaW5lPSI3MiIgZD0iTTQzMS40NSwxNzguMjMgQzQ1MC41MiwxOTcuOTcgNDc3LjkyLDIyNi4zMiA0OTcuOTYsMjQ3LjA1ICIgZmlsbD0ibm9uZSIgaWQ9IkJvcnJvd2VyTWFuYWdlbWVudC10by1Cb3Jyb3dlckxvZ2ljIiBzdHlsZT0ic3Ryb2tlOiMxODE4MTg7c3Ryb2tlLXdpZHRoOjEuMDsiLz48cG9seWdvbiBmaWxsPSIjMTgxODE4IiBwb2ludHM9IjUwMS42MSwyNTAuODMsNDk4LjIyMzgsMjQxLjU4MTYsNDk4LjEzMjIsMjQ3LjIzNzcsNDkyLjQ3NjEsMjQ3LjE0NjEsNTAxLjYxLDI1MC44MyIgc3R5bGU9InN0cm9rZTojMTgxODE4O3N0cm9rZS13aWR0aDoxLjA7Ii8+PC9nPjwhLS1saW5rIEJvcnJvd2VyTWFuYWdlbWVudCB0byBMaXN0Qm9ycm93ZXItLT48ZyBpZD0ibGlua19Cb3Jyb3dlck1hbmFnZW1lbnRfTGlzdEJvcnJvd2VyIj48cGF0aCBjb2RlTGluZT0iNzMiIGQ9Ik00MDkuMTYsMTc4LjA5IEM0MTAuNDMsMjEyLjM0IDQxNi44NiwyNzcuNDcgNDQ2LDMyMyBDNDk3LjEyLDQwMi44OSA1NDEuOTIsMzkyLjc3IDYxNiw0NTIgQzYzMS4wMiw0NjQuMDEgNjQ3LjM3LDQ3Ny42OSA2NjEuMDQsNDg5LjMyICIgZmlsbD0ibm9uZSIgaWQ9IkJvcnJvd2VyTWFuYWdlbWVudC10by1MaXN0Qm9ycm93ZXIiIHN0eWxlPSJzdHJva2U6IzE4MTgxODtzdHJva2Utd2lkdGg6MS4wOyIvPjxwb2x5Z29uIGZpbGw9IiMxODE4MTgiIHBvaW50cz0iNjY1LjE5LDQ5Mi44Niw2NjAuOTI0MSw0ODMuOTgyOSw2NjEuMzgwNyw0ODkuNjIxMyw2NTUuNzQyMyw0OTAuMDc3OSw2NjUuMTksNDkyLjg2IiBzdHlsZT0ic3Ryb2tlOiMxODE4MTg7c3Ryb2tlLXdpZHRoOjEuMDsiLz48L2c+PCEtLVNSQz1bWlBHelJ5Q1c0OFJ0XzBoYWdILUFmUXVQOGhOZ2M1SUxDYk9UQld3b0sxb21XQUlvc2x4dHNmWUZtcFdmS3lCVFUtIC1UdU80TWdZRktiMW4wMF9iVTQ1OHJlMUh2NFVCdTJYZ2pmSEhWTEVCT0hXM1ZEUW1UT2gtQkhNa1RBRFRDVHlaaGtRaDRjVWw4RXA1RU5CNWJtdkg2WGZqLTZQY3lZR0VEMGdEWXVab2dma3J3Zk0tOWJORHBBMmVsaEFBSlZUZTJ4dkNkb2pGamNhYXZ0dmRLYmw5cHpEY1lQak1hc01RODlOdFlnNmluSGRqM3p3YngyUjhCWk5VVHFsSGE2Wm9JNHAxLTF4OU1BeEJKYWw3d3VfRC1ISXcyN0dRN1F4TkJ2VGdXS3BmV0NlSTFmN181NkI1UnVmNnZxZjZNOEpNdVBFYWlDMWJRWnltanhTMW93R2RFTDZSQ3VETFBLcllJb21jX1VJSzlzcGJiQ3pwZGI5YXhPVTRvMlJ6cjIySUtpM2lyQTRwcWJRY3NXR3hzM1ZLTFZVOWRKVHdmTDhCWk9BbnMwd1M5RW00ZmRXZ0pCMXdBeTBJdkZvN1JfemdwM1dGRXJEaDl5TUJZdUlhOFh2cHUtREY3WXlaN0FfbnBPYkJrMGlWSDAyZi1LeU9LbGZqZjVmQ09LLVJSWlV6Sm9iRWswQnp6THFKUHJzVld4MHkwXS0tPjwvZz48L3N2Zz4=;" vertex="1" parent="1">
            <mxGeometry x="-130" y="-80" width="1422" height="885" as="geometry" />
          </mxCell>
        </UserObject>
      </root>
    </mxGraphModel>
  </diagram>
</mxfile>
